<svg xmlns="http://www.w3.org/2000/svg" version="1.1" viewBox="47.49 15.25 417.59 481.3">
<path d="M0 0 C8.81247898 6.34734667 15.30337074 14.73577766 17.58203125 25.4921875 C17.70266621 28.4974356 17.67502902 31.48649959 17.58203125 34.4921875 C18.40928711 34.47124023 19.23654297 34.45029297 20.08886719 34.42871094 C23.83646495 34.34557131 27.58386874 34.29353219 31.33203125 34.2421875 C32.63398438 34.20867188 33.9359375 34.17515625 35.27734375 34.140625 C36.52773438 34.12773438 37.778125 34.11484375 39.06640625 34.1015625 C40.79455566 34.0701416 40.79455566 34.0701416 42.55761719 34.03808594 C45.58203125 34.4921875 45.58203125 34.4921875 47.98925781 36.26660156 C49.58203125 38.4921875 49.58203125 38.4921875 49.58203125 42.4921875 C50.46184662 42.48330505 51.34166199 42.47442261 52.24813843 42.465271 C60.57430694 42.3848379 68.90034336 42.32407787 77.22681236 42.28493881 C81.50668402 42.26413991 85.78623234 42.2359648 90.06591797 42.19042969 C94.20269536 42.14669483 98.33916343 42.12299263 102.47615433 42.11267853 C104.04769377 42.10533638 105.61921792 42.09099984 107.19062424 42.06926727 C118.51319452 41.91902557 128.37812541 42.68912921 137.05078125 50.7890625 C143.66988 58.15112132 145.89107872 65.72398267 145.82254028 75.45187378 C145.82510356 76.7887599 145.82510356 76.7887599 145.82771862 78.15265381 C145.83100746 81.13293877 145.82001973 84.11299757 145.80908203 87.09326172 C145.80851779 89.23205052 145.80883474 91.37083972 145.80996704 93.5096283 C145.81054104 99.31284087 145.79877905 105.11597082 145.78481913 110.91916418 C145.77231964 116.98501511 145.77114188 123.05086792 145.76876831 129.11672974 C145.76255125 140.60194639 145.74613734 152.08712498 145.72606933 163.57232487 C145.70371739 176.64838888 145.69271867 189.7244547 145.68267846 202.80053306 C145.66177134 229.69777231 145.62659094 256.59497777 145.58203125 283.4921875 C147.55028788 283.72297668 149.51854451 283.95376587 151.48680115 284.18455505 C167.50984684 286.53714093 182.85041846 295.7681979 194.58203125 306.4921875 C195.4225 307.23984375 196.26296875 307.9875 197.12890625 308.7578125 C208.52824628 319.44911898 216.37092965 332.84418998 221.58203125 347.4921875 C221.80648926 348.1222168 222.03094727 348.75224609 222.26220703 349.40136719 C230.12609602 372.83008326 226.98215984 399.74136725 216.49609375 421.76953125 C204.28413924 446.16212757 182.80896605 463.0554797 157.21854401 471.61754608 C143.48809305 475.38168627 129.66402985 475.06588286 115.53252029 475.01508617 C111.75889545 475.00593759 107.98534119 475.02005288 104.21173096 475.03100586 C96.84422505 475.04868818 89.47688316 475.0449986 82.10937113 475.0333553 C76.12061474 475.02428589 70.131904 475.02311203 64.1431427 475.02745056 C63.28768255 475.02806349 62.4322224 475.02867643 61.55083922 475.02930793 C59.81256686 475.03058693 58.07429452 475.03188379 56.3360222 475.0331983 C40.08217186 475.04457249 23.82841215 475.03153734 7.57457668 475.00999683 C-6.35918158 474.99210298 -20.29280661 474.99525488 -34.2265625 475.01367188 C-50.43851458 475.03509027 -66.65038765 475.04350112 -82.86235189 475.03122282 C-84.59143669 475.0299487 -86.3205215 475.02869122 -88.04960632 475.02745056 C-88.90019931 475.02683346 -89.75079229 475.02621636 -90.62716082 475.02558056 C-96.60988379 475.02213248 -102.59255643 475.02794373 -108.57527161 475.03736877 C-115.86385038 475.04859979 -123.15225689 475.04552452 -130.44081599 475.0242458 C-134.15648444 475.0137541 -137.8718659 475.00958152 -141.58753204 475.02284241 C-145.61902798 475.0370129 -149.64980297 475.02006207 -153.68127441 475.00012207 C-154.84965678 475.00904496 -156.01803914 475.01796784 -157.22182703 475.02716112 C-167.56646072 474.92791902 -175.87074085 471.6768848 -183.41796875 464.4921875 C-188.37944643 458.19589603 -190.66545363 451.83228245 -190.67523766 443.78476334 C-190.67874373 443.13250074 -190.6822498 442.48023814 -190.68586212 441.80821002 C-190.69515664 439.62532991 -190.69025794 437.44271773 -190.68539429 435.25982666 C-190.68913154 433.67784971 -190.69373336 432.0958746 -190.69912493 430.51390243 C-190.71136119 426.16853913 -190.71109373 421.82325278 -190.70873618 417.47787619 C-190.70832817 412.79061794 -190.71936568 408.10338443 -190.72885132 403.4161377 C-190.7454659 394.23338741 -190.75096108 385.05066279 -190.75207607 375.86789873 C-190.75302636 368.40340165 -190.75713571 360.93891304 -190.76347733 353.47441864 C-190.78109126 332.31090895 -190.790316 311.14741955 -190.78881638 289.98390248 C-190.78873647 288.84291584 -190.78865655 287.70192919 -190.78857422 286.52636719 C-190.78849246 285.38398723 -190.7884107 284.24160727 -190.78832646 283.06460974 C-190.78751359 264.5515801 -190.80665098 246.03863184 -190.83485095 227.52562574 C-190.8635784 208.51631309 -190.87739131 189.50704013 -190.8756634 170.49770522 C-190.87499943 159.82554549 -190.88049461 149.15347105 -190.9020195 138.48133087 C-190.92022948 129.39449013 -190.92458014 120.30777335 -190.91100065 111.22092226 C-190.90447001 106.58574501 -190.90435731 101.95080558 -190.92170715 97.31565094 C-190.93743868 93.06911771 -190.9345735 88.82301083 -190.91713889 84.57648799 C-190.91406916 83.04352323 -190.9177004 81.51052664 -190.92885904 79.97759941 C-191.00392754 68.92980362 -189.94938685 59.40524627 -182.12109375 51.0234375 C-175.34768879 44.93358716 -168.24725232 42.23313738 -159.12744141 42.26513672 C-158.07274155 42.26469864 -158.07274155 42.26469864 -156.99673462 42.26425171 C-154.69170433 42.26563588 -152.38700449 42.28115353 -150.08203125 42.296875 C-148.47635067 42.30060838 -146.87066781 42.30345382 -145.26498413 42.30545044 C-141.05309686 42.31306129 -136.84134904 42.33268771 -132.6295166 42.3548584 C-128.32594692 42.3753719 -124.02235455 42.3844639 -119.71875 42.39453125 C-111.28509249 42.41593616 -102.851548 42.45004111 -94.41796875 42.4921875 C-94.31484375 41.5434375 -94.21171875 40.5946875 -94.10546875 39.6171875 C-93.41796875 36.4921875 -93.41796875 36.4921875 -90.41796875 34.4921875 C-87.50708008 34.26513672 -87.50708008 34.26513672 -84 34.296875 C-82.74638672 34.30332031 -81.49277344 34.30976562 -80.20117188 34.31640625 C-78.89083984 34.33316406 -77.58050781 34.34992187 -76.23046875 34.3671875 C-74.89518888 34.37722111 -73.55990186 34.3863463 -72.22460938 34.39453125 C-68.9555486 34.41813458 -65.68684847 34.45106156 -62.41796875 34.4921875 C-62.44515991 33.61336914 -62.44515991 33.61336914 -62.47290039 32.71679688 C-62.668612 21.81062792 -58.95814507 13.39070883 -51.41796875 5.4921875 C-37.63784493 -7.66275112 -16.31305228 -10.17259803 0 0 Z " fill="#000000" transform="translate(238.41796875,21.5078125)"/>
<path d="M0 0 C17.49 0 34.98 0 53 0 C55.475 3.465 55.475 3.465 58 7 C60.15753085 8.94343308 60.15753085 8.94343308 62.4375 10.3125 C63.15808594 10.78300781 63.87867188 11.25351563 64.62109375 11.73828125 C70.42141637 14.81464283 75.53139896 15.29761191 81.9519043 15.29052734 C82.83243973 15.29724457 83.71297516 15.30396179 84.62019348 15.31088257 C87.52159322 15.32982719 90.42276106 15.33378538 93.32421875 15.3359375 C95.35195509 15.34236926 97.37969051 15.3490979 99.40742493 15.35610962 C103.65664824 15.36807455 107.90579033 15.37179138 112.1550293 15.37060547 C117.5774019 15.37040265 122.99924825 15.39767062 128.42149639 15.43214989 C132.61076712 15.45448472 136.79991268 15.45844095 140.98923683 15.45738602 C142.98695496 15.45973338 144.984677 15.46850772 146.98233604 15.48405075 C159.79923081 15.57441553 170.64122272 15.23462937 181.46484375 7.5390625 C183.66652389 5.33178013 185.27066123 2.59400816 187 0 C204.49 0 221.98 0 240 0 C240 65.34 240 130.68 240 198 C236.7 199.32 233.4 200.64 230 202 C220.64374337 206.76947923 212.64985703 212.52575222 205.09765625 219.8125 C204.33074463 220.5391687 204.33074463 220.5391687 203.54833984 221.28051758 C201.89014483 223.00214873 201.89014483 223.00214873 200.64306641 225.3503418 C198.64890913 228.43346595 197.15034155 230.05606831 194 232 C186.59882915 233.58433485 178.76857043 232.98962073 171.25 232.8125 C168.13485052 232.76607345 165.02069183 232.73264755 161.9052124 232.72160339 C159.97288051 232.71206498 158.04050385 232.68077324 156.10894775 232.62519836 C150.9198347 232.51344571 150.9198347 232.51344571 146.40917969 234.83081055 C144.47957081 237.80111111 144.42081444 239.52488667 145 243 C146.47466619 245.30536897 146.47466619 245.30536897 149 247 C151.80696003 247.41786702 154.23851941 247.60474313 157.046875 247.609375 C157.81807678 247.62591125 158.58927856 247.64244751 159.3838501 247.65948486 C161.83931454 247.70794593 164.29415984 247.72933037 166.75 247.75 C168.41799987 247.77816146 170.08597092 247.80808914 171.75390625 247.83984375 C175.8358865 247.91370372 179.91752345 247.96328936 184 248 C183.24078665 251.94398175 182.22227716 255.71554105 181.0625 259.5625 C173.27914332 286.9316124 177.55829233 310.25615775 189 336 C126.63 336 64.26 336 0 336 C0 225.12 0 114.24 0 0 Z " fill="#E9E9E7" transform="translate(96,112)"/>
<path d="M0 0 C2.17493861 1.66467847 4.26585568 3.39303917 6.34765625 5.171875 C7.35828125 5.935 8.36890625 6.698125 9.41015625 7.484375 C21.08068637 18.16166852 28.50626519 31.98827138 32.34765625 47.171875 C32.57195312 47.90277344 32.79625 48.63367188 33.02734375 49.38671875 C38.02654214 67.22632397 33.28251011 87.9439346 25.34765625 104.171875 C14.58986525 122.92562246 -1.61641058 137.0862708 -22.68237305 143.02612305 C-45.53127483 149.06611654 -66.39382069 146.85195515 -86.93994141 135.20214844 C-90.81315267 132.87181602 -94.24754999 130.12808902 -97.65234375 127.171875 C-99.16828125 126.0271875 -99.16828125 126.0271875 -100.71484375 124.859375 C-115.24176534 111.56878717 -125.01693149 91.29115131 -125.98828125 71.515625 C-126.4272282 48.24189438 -119.74199255 27.41161004 -103.65234375 10.171875 C-92.52029392 -0.69733476 -79.7776975 -8.13366133 -64.65234375 -11.828125 C-63.97953369 -12.00255127 -63.30672363 -12.17697754 -62.61352539 -12.35668945 C-41.08785118 -17.63131744 -18.11846779 -12.48813391 0 0 Z " fill="#2BBDF2" transform="translate(413.65234375,333.828125)"/>
<path d="M0 0 C1.28992355 -0.00554901 2.57984711 -0.01109802 3.90885925 -0.01681519 C7.44006301 -0.03104557 10.97048642 -0.01401989 14.50161552 0.00946999 C18.20017049 0.02960069 21.89869375 0.02369828 25.59729004 0.0213623 C31.80799199 0.02141585 38.01838947 0.0411583 44.22900391 0.07324219 C51.40512854 0.11013413 58.5808544 0.11891753 65.75706148 0.11194468 C72.66570695 0.10563518 79.57421594 0.11640218 86.48283386 0.13591003 C89.42052661 0.14407593 92.35814952 0.14679508 95.29585266 0.1452179 C99.3992621 0.14417419 103.50214772 0.1683704 107.60546875 0.1953125 C109.43219368 0.1909166 109.43219368 0.1909166 111.29582214 0.18643188 C112.41455215 0.19778168 113.53328217 0.20913147 114.68591309 0.2208252 C115.65559776 0.22455391 116.62528244 0.22828262 117.6243515 0.23212433 C120.81111338 0.6879518 122.7085672 1.73792472 125.30273438 3.61523438 C126.54796784 6.10570131 126.43409976 7.78037945 126.44317627 10.56758118 C126.44888641 11.61487396 126.45459656 12.66216675 126.46047974 13.74119568 C126.46215652 15.47189049 126.46215652 15.47189049 126.46386719 17.23754883 C126.46883209 18.44900574 126.473797 19.66046265 126.47891235 20.90863037 C126.49103433 24.23727001 126.49848276 27.56584672 126.50292301 30.89450097 C126.50585304 32.97401912 126.50995774 35.05353174 126.51442719 37.1330471 C126.52810475 43.63906018 126.53776977 50.14506064 126.54162908 56.65108711 C126.5461087 64.16173361 126.56365091 71.67219801 126.59262967 79.18278915 C126.61424911 84.98753428 126.62433352 90.79222821 126.62567019 96.59701318 C126.62671817 100.0641547 126.632624 103.53112512 126.65048981 106.99822426 C126.67003766 110.8671213 126.66568045 114.73579106 126.65917969 118.60473633 C126.66839447 119.75246017 126.67760925 120.90018402 126.68710327 122.08268738 C126.67874954 123.66631577 126.67874954 123.66631577 126.67022705 125.28193665 C126.67169361 126.19652303 126.67316017 127.11110941 126.67467117 128.05341053 C126.21768128 131.20106252 125.19837132 133.07656546 123.30273438 135.61523438 C120.23295611 136.6384938 118.13517792 136.74584412 114.91969299 136.75567627 C113.80226715 136.76138641 112.68484131 136.76709656 111.53355408 136.77297974 C110.30697586 136.7740976 109.08039764 136.77521545 107.81665039 136.77636719 C105.8797937 136.78381454 105.8797937 136.78381454 103.90380859 136.79141235 C100.36044275 136.8045276 96.81709585 136.81097931 93.27370954 136.81542301 C91.06035371 136.81835446 88.84700305 136.82245935 86.63364983 136.82692719 C79.70957035 136.84059828 72.78550271 136.85026748 65.86141068 136.85412908 C57.86628476 136.85861249 49.87132957 136.876175 41.87625557 136.90512967 C35.69698693 136.92673245 29.51776639 136.93683256 23.33846039 136.93817019 C19.64724567 136.93921901 15.95619154 136.94514317 12.26501656 136.96298981 C8.14930952 136.98250256 4.033961 136.97818718 -0.08178711 136.97167969 C-1.30634109 136.98089447 -2.53089508 136.99010925 -3.79255676 136.99960327 C-5.47292526 136.99124954 -5.47292526 136.99124954 -7.1872406 136.98272705 C-8.64704676 136.98492689 -8.64704676 136.98492689 -10.13634396 136.98717117 C-13.16308884 136.5475803 -14.51369087 135.73069904 -16.69726562 133.61523438 C-17.69044283 130.63570276 -17.83216612 128.65406323 -17.85116577 125.54263306 C-17.85976624 124.49396561 -17.8683667 123.44529816 -17.87722778 122.36485291 C-17.88148773 121.21465164 -17.88574768 120.06445038 -17.89013672 118.87939453 C-17.89831421 117.6677916 -17.9064917 116.45618866 -17.91491699 115.20787048 C-17.93977333 111.19001597 -17.95643813 107.17219904 -17.97070312 103.15429688 C-17.97606387 101.77037932 -17.98144138 100.38646183 -17.98683548 99.0025444 C-18.00845627 93.24636296 -18.02719355 87.4901843 -18.03845787 81.73397255 C-18.05470318 73.48720934 -18.08790342 65.24091679 -18.14485872 56.994331 C-18.18355403 51.19381567 -18.20308987 45.39342626 -18.20837843 39.59278524 C-18.21203179 36.12886917 -18.22405039 32.66545551 -18.25648117 29.20167923 C-18.29214307 25.33759981 -18.28819195 21.47411198 -18.28076172 17.60986328 C-18.29716705 16.46371048 -18.31357239 15.31755768 -18.33047485 14.13667297 C-18.2943271 9.55520798 -18.16042005 6.46858004 -15.95437622 2.40402222 C-10.78515707 -0.43488549 -5.80381133 -0.06320933 0 0 Z " fill="#FAB43F" transform="translate(161.697265625,143.384765625)"/>
<path d="M0 0 C0.67328842 -0.00014603 1.34657684 -0.00029205 2.04026794 -0.0004425 C4.26955366 0.00025512 6.4987562 0.0080405 8.72802734 0.01586914 C10.27216547 0.01773385 11.81630419 0.01915751 13.36044312 0.02015686 C17.42766957 0.02397785 21.49486039 0.03380457 25.56207275 0.04486084 C29.71113605 0.05508395 33.86020509 0.05965641 38.00927734 0.06469727 C46.15252469 0.07542721 54.29573623 0.09302063 62.43896484 0.11352539 C62.43896484 5.39352539 62.43896484 10.67352539 62.43896484 16.11352539 C60.67262695 16.12287109 58.90628906 16.1322168 57.08642578 16.1418457 C51.24684324 16.17738355 45.40758222 16.23118814 39.56827927 16.29742813 C36.0282482 16.33691794 32.48846641 16.36909856 28.94824219 16.38452148 C24.87703541 16.4025791 20.8067603 16.45252264 16.73583984 16.50415039 C15.46593201 16.50537903 14.19602417 16.50660767 12.88763428 16.50787354 C11.70671204 16.52759216 10.52578979 16.54731079 9.30908203 16.56762695 C8.26983582 16.5765094 7.2305896 16.58539185 6.15985107 16.59454346 C2.65578545 17.26290906 1.64124197 18.33728399 -0.56103516 21.11352539 C-1.15673244 23.96113292 -1.15673244 23.96113292 -1.0588131 27.16994476 C-1.06801069 28.41901438 -1.07720828 29.668084 -1.08668458 30.95500422 C-1.0766542 32.34358131 -1.06624968 33.73215574 -1.05551147 35.12072754 C-1.05868709 36.59388737 -1.06361373 38.0670443 -1.0701443 39.54019308 C-1.08299434 43.59393654 -1.0708178 47.64728168 -1.05461574 51.70099902 C-1.04147861 56.0705207 -1.05135499 60.43999722 -1.05838013 64.80952454 C-1.06847296 73.37162351 -1.05716987 81.93356822 -1.03867953 90.49564803 C-1.01793119 100.46080095 -1.01805138 110.42592034 -1.01902469 120.39109081 C-1.02002641 138.16823053 -1.00168985 155.94529834 -0.97265625 173.72241211 C-0.94448045 190.98316762 -0.93031467 208.24385984 -0.93164062 225.50463867 C-0.93172054 226.56768359 -0.93180045 227.6307285 -0.93188278 228.7259869 C-0.93196349 229.7871708 -0.9320442 230.8483547 -0.93212736 231.94169569 C-0.93350631 251.57640156 -0.92173107 271.21108046 -0.90382092 290.8457776 C-0.89778247 297.79649319 -0.89566112 304.74720383 -0.89475632 311.69792175 C-0.89339339 320.16536545 -0.88448284 328.63276372 -0.8660907 337.10018814 C-0.85684341 341.4226461 -0.85076787 345.74504589 -0.85327911 350.06751442 C-0.85546485 354.02135295 -0.84845917 357.97506266 -0.83398207 361.92887431 C-0.8303476 363.36219004 -0.8301024 364.79551902 -0.83351664 366.22883528 C-0.8376333 368.17159445 -0.82833433 370.11436838 -0.81830406 372.05710602 C-0.81689521 373.13790011 -0.81548636 374.2186942 -0.81403482 375.33223963 C-0.55911906 378.13458954 -0.09981393 379.77678198 1.43896484 382.11352539 C4.64991212 383.71899903 8.1414429 383.23356598 11.66725159 383.21118164 C12.52832344 383.20976953 13.3893953 383.20835741 14.27656025 383.2069025 C17.17911395 383.20115923 20.0815987 383.18846037 22.98413086 383.17602539 C25.05846531 383.17087498 27.13280121 383.16628511 29.20713806 383.16221619 C33.68372341 383.1531356 38.16029611 383.14182856 42.63687325 383.12936401 C49.71755752 383.11144886 56.79818756 383.10943973 63.87889099 383.11181641 C65.0730444 383.11218556 66.2671978 383.11255472 67.49753767 383.11293507 C71.1765812 383.11425303 74.85562456 383.11581059 78.53466797 383.11743164 C93.78782278 383.12414384 109.04063648 383.11932048 124.29370117 383.06225586 C135.40878494 383.02078198 146.52338786 383.0110379 157.63852257 383.03836632 C163.52171351 383.05161384 169.40390813 383.04872824 175.28698921 383.00732422 C180.82535155 382.96868032 186.36210739 382.97209765 191.90047646 383.0074482 C193.93015078 383.01298388 195.95993516 383.00320471 197.98944473 382.97675896 C213.34010523 382.78942568 213.34010523 382.78942568 218.53611565 386.06741333 C220.76787736 388.29925855 222.55599164 390.59010037 224.43896484 393.11352539 C226.56844125 394.8642562 228.75072407 396.43756695 231.00537109 398.01977539 C231.47845703 398.38071289 231.95154297 398.74165039 232.43896484 399.11352539 C232.43896484 399.44352539 232.43896484 399.77352539 232.43896484 400.11352539 C202.09393852 400.20477176 171.74892637 400.275562 141.40379422 400.31778671 C137.82144202 400.32278955 134.23909008 400.32796684 130.65673828 400.33325195 C129.58696368 400.33482582 129.58696368 400.33482582 128.49557747 400.33643147 C116.94713906 400.35383768 105.39878028 400.38537654 93.85038911 400.42213657 C82.00105507 400.45954003 70.15176275 400.48175997 58.3023721 400.48987937 C51.64657056 400.4948758 44.99091724 400.50739092 38.33517075 400.53644562 C32.07256508 400.56356303 25.81021473 400.57197769 19.54755592 400.56595612 C17.24733023 400.56705798 14.94709614 400.57503345 12.64692116 400.59034729 C9.50891783 400.61021712 6.3718814 400.60547494 3.2338562 400.59454346 C2.32139661 400.60619482 1.40893701 400.61784619 0.46882713 400.62985063 C-5.04410468 400.57785867 -8.18915012 399.79094678 -12.56103516 396.11352539 C-16.83865517 391.37345997 -17.68538375 388.17058475 -17.69525623 381.87339306 C-17.69971408 380.55787997 -17.70417192 379.24236689 -17.70876485 377.88698977 C-17.70867555 376.41824606 -17.70848569 374.94950235 -17.70820618 373.48075867 C-17.71150462 371.92739498 -17.71523014 370.37403216 -17.71934766 368.82067043 C-17.72937783 364.54063753 -17.73308607 360.26061866 -17.73573697 355.98057568 C-17.73963693 351.36901255 -17.74921539 346.75746057 -17.75794983 342.14590454 C-17.77772155 331.00428159 -17.78778073 319.86265773 -17.79667762 308.72102162 C-17.80105881 303.47731655 -17.80642601 298.23361249 -17.81166649 292.98990822 C-17.82867844 275.56457955 -17.84317384 258.13925152 -17.85041523 240.71391582 C-17.85232519 236.19095039 -17.85424552 231.66798495 -17.85620117 227.14501953 C-17.85668491 226.02082813 -17.85716865 224.89663673 -17.85766705 223.73837892 C-17.86597196 205.51668682 -17.8913168 187.29506028 -17.92378185 169.07339682 C-17.9568235 150.37608637 -17.97486131 131.67880927 -17.97805947 112.98146945 C-17.98022711 102.47929591 -17.98901291 91.977218 -18.01452065 81.47507286 C-18.03618802 72.53334431 -18.04429759 63.5917346 -18.03455386 54.64998277 C-18.02999782 50.08620018 -18.0319709 45.52266301 -18.05131531 40.9589138 C-18.06886677 36.78217441 -18.06801495 32.60586095 -18.05241802 28.42911754 C-18.05002971 26.91699227 -18.05442853 25.40483812 -18.06624667 23.89275714 C-18.08131058 21.83837917 -18.07173399 19.78552122 -18.05601978 17.73118114 C-18.05699659 16.58984917 -18.0579734 15.44851719 -18.05897981 14.2725994 C-17.26211544 9.21711083 -14.7090904 6.12490739 -10.93603516 2.80102539 C-7.01577671 0.0155786 -4.81442659 -0.0087535 0 0 Z " fill="#E99C2C" transform="translate(81.56103515625,79.886474609375)"/>
<path d="M0 0 C1.28992355 -0.00554901 2.57984711 -0.01109802 3.90885925 -0.01681519 C7.44006301 -0.03104557 10.97048642 -0.01401989 14.50161552 0.00946999 C18.20017049 0.02960069 21.89869375 0.02369828 25.59729004 0.0213623 C31.80799199 0.02141585 38.01838947 0.0411583 44.22900391 0.07324219 C51.40512854 0.11013413 58.5808544 0.11891753 65.75706148 0.11194468 C72.66570695 0.10563518 79.57421594 0.11640218 86.48283386 0.13591003 C89.42052661 0.14407593 92.35814952 0.14679508 95.29585266 0.1452179 C99.3992621 0.14417419 103.50214772 0.1683704 107.60546875 0.1953125 C109.43219368 0.1909166 109.43219368 0.1909166 111.29582214 0.18643188 C112.41455215 0.19778168 113.53328217 0.20913147 114.68591309 0.2208252 C115.65559776 0.22455391 116.62528244 0.22828262 117.6243515 0.23212433 C120.81111338 0.6879518 122.7085672 1.73792472 125.30273438 3.61523438 C126.54796784 6.10570131 126.43409976 7.78037945 126.44317627 10.56758118 C126.44888641 11.61487396 126.45459656 12.66216675 126.46047974 13.74119568 C126.46215652 15.47189049 126.46215652 15.47189049 126.46386719 17.23754883 C126.46883209 18.44900574 126.473797 19.66046265 126.47891235 20.90863037 C126.49103433 24.23727001 126.49848276 27.56584672 126.50292301 30.89450097 C126.50585304 32.97401912 126.50995774 35.05353174 126.51442719 37.1330471 C126.52810475 43.63906018 126.53776977 50.14506064 126.54162908 56.65108711 C126.5461087 64.16173361 126.56365091 71.67219801 126.59262967 79.18278915 C126.61424911 84.98753428 126.62433352 90.79222821 126.62567019 96.59701318 C126.62671817 100.0641547 126.632624 103.53112512 126.65048981 106.99822426 C126.67003766 110.8671213 126.66568045 114.73579106 126.65917969 118.60473633 C126.66839447 119.75246017 126.67760925 120.90018402 126.68710327 122.08268738 C126.67874954 123.66631577 126.67874954 123.66631577 126.67022705 125.28193665 C126.67169361 126.19652303 126.67316017 127.11110941 126.67467117 128.05341053 C126.21768128 131.20106252 125.19837132 133.07656546 123.30273438 135.61523438 C120.23295611 136.6384938 118.13517792 136.74584412 114.91969299 136.75567627 C113.80226715 136.76138641 112.68484131 136.76709656 111.53355408 136.77297974 C110.30697586 136.7740976 109.08039764 136.77521545 107.81665039 136.77636719 C105.8797937 136.78381454 105.8797937 136.78381454 103.90380859 136.79141235 C100.36044275 136.8045276 96.81709585 136.81097931 93.27370954 136.81542301 C91.06035371 136.81835446 88.84700305 136.82245935 86.63364983 136.82692719 C79.70957035 136.84059828 72.78550271 136.85026748 65.86141068 136.85412908 C57.86628476 136.85861249 49.87132957 136.876175 41.87625557 136.90512967 C35.69698693 136.92673245 29.51776639 136.93683256 23.33846039 136.93817019 C19.64724567 136.93921901 15.95619154 136.94514317 12.26501656 136.96298981 C8.14930952 136.98250256 4.033961 136.97818718 -0.08178711 136.97167969 C-1.30634109 136.98089447 -2.53089508 136.99010925 -3.79255676 136.99960327 C-5.47292526 136.99124954 -5.47292526 136.99124954 -7.1872406 136.98272705 C-8.64704676 136.98492689 -8.64704676 136.98492689 -10.13634396 136.98717117 C-13.16308884 136.5475803 -14.51369087 135.73069904 -16.69726562 133.61523438 C-17.69044283 130.63570276 -17.83216612 128.65406323 -17.85116577 125.54263306 C-17.85976624 124.49396561 -17.8683667 123.44529816 -17.87722778 122.36485291 C-17.88148773 121.21465164 -17.88574768 120.06445038 -17.89013672 118.87939453 C-17.89831421 117.6677916 -17.9064917 116.45618866 -17.91491699 115.20787048 C-17.93977333 111.19001597 -17.95643813 107.17219904 -17.97070312 103.15429688 C-17.97606387 101.77037932 -17.98144138 100.38646183 -17.98683548 99.0025444 C-18.00845627 93.24636296 -18.02719355 87.4901843 -18.03845787 81.73397255 C-18.05470318 73.48720934 -18.08790342 65.24091679 -18.14485872 56.994331 C-18.18355403 51.19381567 -18.20308987 45.39342626 -18.20837843 39.59278524 C-18.21203179 36.12886917 -18.22405039 32.66545551 -18.25648117 29.20167923 C-18.29214307 25.33759981 -18.28819195 21.47411198 -18.28076172 17.60986328 C-18.29716705 16.46371048 -18.31357239 15.31755768 -18.33047485 14.13667297 C-18.2943271 9.55520798 -18.16042005 6.46858004 -15.95437622 2.40402222 C-10.78515707 -0.43488549 -5.80381133 -0.06320933 0 0 Z M-1.69726562 16.61523438 C-1.69726562 50.93523437 -1.69726562 85.25523437 -1.69726562 120.61523438 C35.26273438 120.61523438 72.22273438 120.61523438 110.30273438 120.61523438 C110.30273438 86.29523438 110.30273438 51.97523438 110.30273438 16.61523438 C99.74273437 16.61523438 89.18273437 16.61523438 78.30273438 16.61523438 C78.05347048 24.99141657 78.05347048 24.99141657 77.82470703 33.36816406 C77.78909668 34.41391602 77.75348633 35.45966797 77.71679688 36.53710938 C77.66966553 38.1395752 77.66966553 38.1395752 77.62158203 39.77441406 C77.30562045 42.58952049 76.90609655 44.2927518 75.30273438 46.61523438 C71.5191166 47.8764403 67.96389596 47.7776103 64.02148438 47.78320312 C63.21159058 47.78653152 62.40169678 47.78985992 61.56726074 47.79328918 C59.85588143 47.79834896 58.14449226 47.8006978 56.43310547 47.80053711 C53.81266096 47.80272608 51.1926358 47.82089835 48.57226562 47.83984375 C46.90950665 47.84277735 45.24674567 47.84476237 43.58398438 47.84570312 C42.79954956 47.85288864 42.01511475 47.86007416 41.20690918 47.86747742 C37.37108697 47.85133009 35.57118609 47.79420218 32.30273438 45.61523438 C31.24436777 42.44013456 31.10029649 39.97241054 30.98632812 36.63476562 C30.92916626 35.06239136 30.92916626 35.06239136 30.87084961 33.45825195 C30.82774658 32.12818115 30.78464355 30.79811035 30.74023438 29.42773438 C30.59585938 25.19960937 30.45148438 20.97148437 30.30273438 16.61523438 C19.74273437 16.61523438 9.18273437 16.61523438 -1.69726562 16.61523438 Z " fill="#000000" transform="translate(161.697265625,143.384765625)"/>
<path d="M0 0 C5.49578348 3.77082954 10.22321167 9.02179503 12.140625 15.46875 C12.44548899 18.88114806 12.60099277 22.25252782 12.70703125 25.67382812 C12.92497305 30.87446829 12.92497305 30.87446829 15.140625 35.46875 C17.87741225 36.83714363 20.18326924 36.68509818 23.2421875 36.78515625 C24.45390625 36.82705078 25.665625 36.86894531 26.9140625 36.91210938 C28.18507813 36.95142578 29.45609375 36.99074219 30.765625 37.03125 C32.044375 37.07443359 33.323125 37.11761719 34.640625 37.16210938 C37.80717848 37.26844886 40.97381253 37.37047833 44.140625 37.46875 C44.22797963 42.01029478 44.28113747 46.55162232 44.328125 51.09375 C44.35326172 52.37894531 44.37839844 53.66414063 44.40429688 54.98828125 C44.41396484 56.23222656 44.42363281 57.47617188 44.43359375 58.7578125 C44.4493042 59.89943848 44.46501465 61.04106445 44.48120117 62.21728516 C44.02849965 66.53920546 42.57959073 69.89113392 39.640625 73.11328125 C34.26830483 77.29641597 30.33566713 77.62386224 23.7253418 77.64575195 C22.86647369 77.65232315 22.00760559 77.65889435 21.12271118 77.66566467 C18.27842115 77.68538685 15.43418388 77.69705741 12.58984375 77.70703125 C11.61818583 77.71110678 10.6465279 77.7151823 9.6454258 77.71938133 C4.50328407 77.74023672 -0.638831 77.75454117 -5.78100586 77.76391602 C-11.09070818 77.77498382 -16.39999182 77.80938961 -21.70954609 77.84908772 C-25.79394814 77.87523637 -29.87825011 77.88360626 -33.9627285 77.88719749 C-35.91993223 77.89206739 -37.87713137 77.90369282 -39.83425331 77.92223549 C-42.57514243 77.9465913 -45.31494393 77.94566855 -48.0559082 77.9387207 C-48.86183914 77.95153076 -49.66777008 77.96434082 -50.49812317 77.97753906 C-55.74906058 77.9291027 -58.67345336 76.90676445 -62.859375 73.46875 C-67.19704696 68.66214053 -67.98593174 65.43778914 -67.95703125 59.05078125 C-67.95380859 57.79716797 -67.95058594 56.54355469 -67.94726562 55.25195312 C-67.93888672 53.94162109 -67.93050781 52.63128906 -67.921875 51.28125 C-67.91685817 49.94596519 -67.91229559 48.61067859 -67.90820312 47.27539062 C-67.89640195 44.00646527 -67.87993797 40.73763009 -67.859375 37.46875 C-66.70937012 37.439021 -66.70937012 37.439021 -65.53613281 37.40869141 C-62.06020281 37.31339554 -58.58486994 37.20373402 -55.109375 37.09375 C-53.29953125 37.04734375 -53.29953125 37.04734375 -51.453125 37 C-50.29296875 36.96132812 -49.1328125 36.92265625 -47.9375 36.8828125 C-46.86918945 36.8513916 -45.80087891 36.8199707 -44.70019531 36.78759766 C-41.88508889 36.47163607 -40.18185758 36.07211217 -37.859375 34.46875 C-36.8725382 31.50823959 -36.7161642 29.01760655 -36.62109375 25.921875 C-36.27105494 15.82601882 -34.89008346 10.07733262 -27.421875 3.09375 C-19.48092389 -3.83904558 -9.44138511 -4.75465437 0 0 Z " fill="#0AAEE8" transform="translate(227.859375,34.53125)"/>
<path d="M0 0 C8.7624653 -0.06786404 17.52475511 -0.12286684 26.28742409 -0.15543652 C30.35659195 -0.17107087 34.42557017 -0.19226809 38.49462891 -0.22631836 C42.42389151 -0.25899183 46.35297207 -0.27686979 50.28236008 -0.28463173 C51.77903482 -0.29016095 53.27569997 -0.30095824 54.77229691 -0.31719017 C56.87396777 -0.33907143 58.97489312 -0.34196258 61.07666016 -0.34057617 C62.27134918 -0.34723801 63.46603821 -0.35389984 64.69692993 -0.36076355 C69.04906335 0.11457941 72.42844211 1.53296377 75.64453125 4.53515625 C79.68577802 9.81986356 80.14338135 12.79293833 80.12025452 19.32681274 C80.12110894 20.19831825 80.12196337 21.06982375 80.12284368 21.96773851 C80.12449848 24.90510792 80.1189771 27.84242096 80.11352539 30.77978516 C80.11324349 32.87857563 80.1134013 34.9773662 80.1139679 37.07615662 C80.11425577 42.7886745 80.10836066 48.50117154 80.10139394 54.21368456 C80.09515873 60.17813036 80.09455647 66.14257659 80.09336853 72.10702515 C80.09025571 83.40819833 80.08204298 94.70936189 80.07201904 106.01053083 C80.06085638 118.87369274 80.05534707 131.7368551 80.05032361 144.60002065 C80.03986033 171.06668578 80.02226184 197.53334235 80 224 C74.72 224.33 69.44 224.66 64 225 C63.99191315 222.4509343 63.98382629 219.90186859 63.97549438 217.27555847 C63.89850101 193.30384235 63.81056676 169.33218437 63.71247292 145.36054516 C63.66230151 133.03521662 63.61585917 120.70989489 63.578125 108.38452148 C63.54523544 97.64464059 63.50542115 86.9048118 63.45720994 76.16498834 C63.43191472 70.47571389 63.41014241 64.78647415 63.39665604 59.09715843 C63.38386308 53.7464501 63.36183874 48.39586058 63.33261681 43.04521751 C63.32351933 41.0775582 63.31784577 39.10987974 63.31578636 37.14220047 C63.31247911 34.46312818 63.29704365 31.78439594 63.2784729 29.10539246 C63.28040763 28.32037753 63.28234237 27.5353626 63.28433573 26.72655934 C63.24495601 22.94664109 63.14972377 21.22458565 61 18 C57.87619227 16.95873076 55.61482146 16.84447668 52.33520508 16.79467773 C51.17422806 16.77473251 50.01325104 16.75478729 48.8170929 16.73423767 C46.93729988 16.70916893 46.93729988 16.70916893 45.01953125 16.68359375 C43.73640549 16.66281265 42.45327972 16.64203156 41.13127136 16.62062073 C37.72337185 16.56548094 34.31541259 16.51603611 30.90740967 16.46777344 C27.42845352 16.41749921 23.94958393 16.36184409 20.47070312 16.30664062 C13.6472089 16.19915809 6.82363423 16.0981886 0 16 C0 10.72 0 5.44 0 0 Z " fill="#E99C2C" transform="translate(288,80)"/>
<path d="M0 0 C0.80232056 -0.00004028 1.60464111 -0.00008057 2.43127441 -0.00012207 C4.12239443 0.00522359 5.8135146 0.02276578 7.50439453 0.05175781 C10.08573724 0.09362006 12.66446867 0.09282315 15.24609375 0.0859375 C16.89324721 0.09643096 18.54038728 0.10936992 20.1875 0.125 C21.3392572 0.12530212 21.3392572 0.12530212 22.51428223 0.12561035 C27.02599744 0.22473308 30.01087988 0.78722566 33.59375 3.59375 C34.93217177 6.27059354 34.73564968 8.34360421 34.75488281 11.34106445 C34.76449036 12.5460408 34.7740979 13.75101715 34.78399658 14.99250793 C34.78824646 16.30080063 34.79249634 17.60909332 34.796875 18.95703125 C34.80262745 20.30982973 34.80838518 21.6626282 34.81414795 23.01542664 C34.82465851 25.85428243 34.83050048 28.69310991 34.83398438 31.53198242 C34.83946261 35.16364637 34.86347551 38.79493415 34.89195633 42.42648029 C34.91061454 45.22237731 34.91579003 48.01818441 34.91732025 50.81413841 C34.92180764 52.80218726 34.94044097 54.79018791 34.95928955 56.77815247 C34.95628845 57.9925853 34.95328735 59.20701813 34.95019531 60.45825195 C34.95566376 62.05803642 34.95566376 62.05803642 34.96124268 63.69013977 C34.53667101 67.04473895 33.63915733 68.91722622 31.59375 71.59375 C27.8240619 72.8503127 24.27657257 72.77550362 20.34765625 72.796875 C19.54013412 72.80257507 18.732612 72.80827515 17.90061951 72.81414795 C16.19344388 72.82358834 14.48625011 72.83012812 12.77905273 72.83398438 C10.16943625 72.8437009 7.56060393 72.8747369 4.95117188 72.90625 C3.29167134 72.91277933 1.63216518 72.91803007 -0.02734375 72.921875 C-0.80661728 72.9342218 -1.58589081 72.9465686 -2.38877869 72.95928955 C-5.62902164 72.94598287 -7.99008795 72.81914875 -10.86743164 71.26074219 C-13.77829349 68.10742397 -13.54965443 64.81749295 -13.59912109 60.73291016 C-13.61518402 59.52800934 -13.63124695 58.32310852 -13.64779663 57.08169556 C-13.69221854 51.58115857 -13.73373295 46.08075176 -13.75634766 40.58007812 C-13.76969436 37.6757869 -13.79756326 34.77219708 -13.83837891 31.86816406 C-13.8877245 28.35681548 -13.91247009 24.84610357 -13.91957474 21.33442307 C-13.92953493 19.35069895 -13.96377084 17.36714467 -13.99838257 15.38369751 C-13.97757026 6.53890911 -13.97757026 6.53890911 -11.39892578 2.27294922 C-7.55377524 0.1154239 -4.29777753 -0.09176829 0 0 Z " fill="#000000" transform="translate(357.40625,391.40625)"/>
<path d="M0 0 C6.21859524 3.64269177 11.57723728 9.67325234 13.75 16.5625 C14.91799552 24.56634299 13.36092605 30.94227872 8.75 37.5625 C4.28317587 42.59165591 -1.06763217 46.05459626 -7.85546875 46.87890625 C-14.18396585 47.14950406 -19.15446332 46.46458104 -24.25 42.5625 C-29.42895097 37.63191791 -33.71774606 33.0495245 -34.5859375 25.73046875 C-34.69244394 17.60402713 -33.84487158 12.33174968 -28.15625 6.3671875 C-20.19363365 -1.03804571 -10.66278676 -4.62406 0 0 Z " fill="#000303" transform="translate(378.25,337.4375)"/>
<path d="M0 0 C0.83150574 -0.0087616 1.66301147 -0.01752319 2.51971436 -0.02655029 C5.2610737 -0.04850973 8.00081252 -0.03400446 10.7421875 -0.01708984 C12.65120757 -0.02045899 14.56022555 -0.02531242 16.46923828 -0.03158569 C20.46733045 -0.03895232 24.46486352 -0.02825829 28.46289062 -0.00488281 C33.58456931 0.02360487 38.70493797 0.00719977 43.8265686 -0.02274513 C47.76775969 -0.04082379 51.70864082 -0.03505748 55.64984131 -0.02210617 C57.53806717 -0.01877373 59.4263213 -0.02285356 61.31451416 -0.03450394 C63.95522455 -0.04722218 66.5938218 -0.02782357 69.234375 0 C70.01270691 -0.01012115 70.79103882 -0.02024231 71.59295654 -0.03067017 C75.59086694 0.04726398 77.42692403 0.49762988 80.60986328 2.9960022 C82.6171875 5.64697266 82.6171875 5.64697266 83.1171875 8.70947266 C82.56973942 11.92573013 81.9096184 13.35454176 79.6171875 15.64697266 C75.89784575 16.88675324 72.42861914 16.81857398 68.55322266 16.83984375 C67.73176254 16.84802124 66.91030243 16.85619873 66.06394958 16.86462402 C63.34472378 16.88944324 60.62554998 16.90598327 57.90625 16.92041016 C56.97747417 16.92573383 56.04869835 16.93105751 55.0917778 16.93654251 C50.17773006 16.96325632 45.26370759 16.98263869 40.34960938 16.99707031 C36.28134748 17.01042302 32.21358557 17.03830247 28.14550781 17.07910156 C23.23367549 17.12836262 18.32229755 17.15318297 13.41022873 17.16029739 C11.53870052 17.16701725 9.66718273 17.18225837 7.79579544 17.2061882 C5.17663802 17.23777475 2.55923894 17.237887 -0.06005859 17.23046875 C-0.83218185 17.24687408 -1.60430511 17.26327942 -2.39982605 17.28018188 C-6.39300937 17.23390165 -8.18866285 16.79995308 -11.36392212 14.29800415 C-13.3828125 11.64697266 -13.3828125 11.64697266 -14.0078125 8.64697266 C-12.42465596 1.04782127 -6.87602606 -0.08941343 0 0 Z " fill="#010101" transform="translate(125.3828125,343.35302734375)"/>
<path d="M0 0 C0.80232056 -0.00004028 1.60464111 -0.00008057 2.43127441 -0.00012207 C4.12239443 0.00522359 5.8135146 0.02276578 7.50439453 0.05175781 C10.08573724 0.09362006 12.66446867 0.09282315 15.24609375 0.0859375 C16.89324721 0.09643096 18.54038728 0.10936992 20.1875 0.125 C21.3392572 0.12530212 21.3392572 0.12530212 22.51428223 0.12561035 C27.02599744 0.22473308 30.01087988 0.78722566 33.59375 3.59375 C34.99832737 6.40290474 34.84270157 8.48185534 34.59375 11.59375 C32.81390595 14.7296657 32.07066793 15.43477736 28.59375 16.59375 C23.34255951 16.87064497 18.09179115 16.90714221 12.83398438 16.94384766 C11.09393955 16.96041642 9.35396305 16.98771889 7.61425781 17.02587891 C5.09925214 17.08071881 2.58583593 17.1025286 0.0703125 17.1171875 C-0.70379974 17.13985687 -1.47791199 17.16252625 -2.27548218 17.18588257 C-6.32165937 17.17010093 -8.17461313 16.77539113 -11.39697266 14.24853516 C-13.40625 11.59375 -13.40625 11.59375 -14.03125 8.59375 C-12.4447375 0.97849 -6.89259428 -0.14717412 0 0 Z " fill="#020200" transform="translate(221.40625,207.40625)"/>
<path d="M0 0 C5.28 0 10.56 0 16 0 C16 13.2 16 26.4 16 40 C10.72 40 5.44 40 0 40 C0 26.8 0 13.6 0 0 Z " fill="#C4F8FF" transform="translate(360,408)"/>
<path d="M0 0 C1.31484375 -0.00644531 2.6296875 -0.01289063 3.984375 -0.01953125 C5.0043457 -0.0038208 5.0043457 -0.0038208 6.04492188 0.01220703 C8.12034681 0.03900242 10.19036676 0.01243363 12.265625 -0.01953125 C14.23789063 -0.00986328 14.23789063 -0.00986328 16.25 0 C17.44882813 0.00563965 18.64765625 0.0112793 19.8828125 0.01708984 C24.02762154 0.844179 25.53032017 2.39237862 28.125 5.6640625 C28.69710224 9.16818869 28.56540698 10.88810734 26.8125 13.9765625 C22.553463 18.2355995 15.38652789 16.96388784 9.78320312 17.01416016 C8.43114001 17.03072001 7.07916446 17.05801174 5.72753906 17.09619141 C3.76941461 17.15114121 1.8103772 17.1697285 -0.1484375 17.1875 C-1.31810059 17.20731934 -2.48776367 17.22713867 -3.69287109 17.24755859 C-7.82637496 16.48961213 -9.28901796 14.90443687 -11.875 11.6640625 C-12.5 8.6640625 -12.5 8.6640625 -11.875 5.6640625 C-8.19554797 1.04856469 -5.84901743 0.02751554 0 0 Z " fill="#030303" transform="translate(179.875,375.3359375)"/>
<path d="M0 0 C1.31484375 -0.00644531 2.6296875 -0.01289063 3.984375 -0.01953125 C5.0043457 -0.0038208 5.0043457 -0.0038208 6.04492188 0.01220703 C8.12034681 0.03900242 10.19036676 0.01243363 12.265625 -0.01953125 C14.23789063 -0.00986328 14.23789063 -0.00986328 16.25 0 C17.44882813 0.00563965 18.64765625 0.0112793 19.8828125 0.01708984 C24.02762154 0.844179 25.53032017 2.39237862 28.125 5.6640625 C28.69710224 9.16818869 28.56540698 10.88810734 26.8125 13.9765625 C22.553463 18.2355995 15.38652789 16.96388784 9.78320312 17.01416016 C8.43114001 17.03072001 7.07916446 17.05801174 5.72753906 17.09619141 C3.76941461 17.15114121 1.8103772 17.1697285 -0.1484375 17.1875 C-1.31810059 17.20731934 -2.48776367 17.22713867 -3.69287109 17.24755859 C-7.82637496 16.48961213 -9.28901796 14.90443687 -11.875 11.6640625 C-12.5 8.6640625 -12.5 8.6640625 -11.875 5.6640625 C-8.19554797 1.04856469 -5.84901743 0.02751554 0 0 Z " fill="#030303" transform="translate(123.875,375.3359375)"/>
<path d="M0 0 C1.31484375 -0.00644531 2.6296875 -0.01289063 3.984375 -0.01953125 C5.0043457 -0.0038208 5.0043457 -0.0038208 6.04492188 0.01220703 C8.12034681 0.03900242 10.19036676 0.01243363 12.265625 -0.01953125 C14.23789062 -0.00986328 14.23789062 -0.00986328 16.25 0 C17.44882812 0.00563965 18.64765625 0.0112793 19.8828125 0.01708984 C24.02762154 0.844179 25.53032017 2.39237862 28.125 5.6640625 C28.69710224 9.16818869 28.56540698 10.88810734 26.8125 13.9765625 C22.553463 18.2355995 15.38652789 16.96388784 9.78320312 17.01416016 C8.43114001 17.03072001 7.07916446 17.05801174 5.72753906 17.09619141 C3.76941461 17.15114121 1.8103772 17.1697285 -0.1484375 17.1875 C-1.31810059 17.20731934 -2.48776367 17.22713867 -3.69287109 17.24755859 C-7.82637496 16.48961213 -9.28901796 14.90443687 -11.875 11.6640625 C-12.5 8.6640625 -12.5 8.6640625 -11.875 5.6640625 C-8.19554797 1.04856469 -5.84901743 0.02751554 0 0 Z " fill="#030303" transform="translate(251.875,311.3359375)"/>
<path d="M0 0 C1.31484375 -0.00644531 2.6296875 -0.01289063 3.984375 -0.01953125 C5.0043457 -0.0038208 5.0043457 -0.0038208 6.04492188 0.01220703 C8.12034681 0.03900242 10.19036676 0.01243363 12.265625 -0.01953125 C14.23789063 -0.00986328 14.23789063 -0.00986328 16.25 0 C17.44882813 0.00563965 18.64765625 0.0112793 19.8828125 0.01708984 C24.02762154 0.844179 25.53032017 2.39237862 28.125 5.6640625 C28.69710224 9.16818869 28.56540698 10.88810734 26.8125 13.9765625 C22.553463 18.2355995 15.38652789 16.96388784 9.78320312 17.01416016 C8.43114001 17.03072001 7.07916446 17.05801174 5.72753906 17.09619141 C3.76941461 17.15114121 1.8103772 17.1697285 -0.1484375 17.1875 C-1.31810059 17.20731934 -2.48776367 17.22713867 -3.69287109 17.24755859 C-7.82637496 16.48961213 -9.28901796 14.90443687 -11.875 11.6640625 C-12.5 8.6640625 -12.5 8.6640625 -11.875 5.6640625 C-8.19554797 1.04856469 -5.84901743 0.02751554 0 0 Z " fill="#030303" transform="translate(123.875,311.3359375)"/>
<path d="M0 0 C0.93714844 -0.00257813 1.87429687 -0.00515625 2.83984375 -0.0078125 C7.80437377 0.06260637 11.52949427 0.18039685 15.5 3.5 C16.90457737 6.30915474 16.74895157 8.38810534 16.5 11.5 C14.72015595 14.6359157 13.97691793 15.34102736 10.5 16.5 C7.04690178 16.8042547 3.58992872 16.8234943 0.125 16.875 C-0.82117188 16.91238281 -1.76734375 16.94976562 -2.7421875 16.98828125 C-7.46883931 17.04802825 -9.74297641 17.06587514 -13.625 14.1640625 C-15.5 11.5 -15.5 11.5 -16.125 8.5 C-14.28929376 -0.31138993 -7.47902301 -0.22632532 0 0 Z " fill="#040300" transform="translate(223.5,231.5)"/>
<path d="M0 0 C3.95403662 0.26360244 5.65370756 0.86143155 8.75 3.25 C11.23386059 6.97579089 11.1304212 8.83711402 10.75 13.25 C9.49544028 16.07275936 8.46615278 17.71288541 6 19.5625 C2.68788168 20.57453615 0.19560774 20.67314481 -3.25 20.25 C-7.12949018 17.04520377 -9.05826445 14.94366403 -9.625 9.9375 C-9.15786625 5.34401813 -7.72959782 4.13552015 -4.25 1.25 C-3.25 0.25 -3.25 0.25 0 0 Z " fill="#000304" transform="translate(215.25,45.75)"/>
<path d="M0 0 C5.28 0 10.56 0 16 0 C16 5.28 16 10.56 16 16 C10.72 16 5.44 16 0 16 C0 10.72 0 5.44 0 0 Z " fill="#E82F3E" transform="translate(208,160)"/>
<path d="M0 0 C4.0743356 0.84881992 5.54405875 2.30225596 8 5.625 C8.54667869 8.97340698 8.34038506 10.83785954 7 13.9375 C4.40625967 16.1259684 2.35863095 16.59190498 -0.9921875 16.8515625 C-3 16.625 -3 16.625 -6 14.5625 C-8 11.625 -8 11.625 -8.625 8.625 C-7.58039389 3.61089068 -5.01410932 1.04460611 0 0 Z " fill="#BBEDF3" transform="translate(368,351.375)"/>
</svg>