<svg xmlns="http://www.w3.org/2000/svg" version="1.1" viewBox="15.47 -0.24 481.08 512.44">
<path d="M0 0 C0.60111099 0.31185242 1.20222198 0.62370483 1.82154846 0.94500732 C2.4743428 1.26733337 3.12713715 1.58965942 3.79971313 1.92175293 C5.91994645 2.97247638 8.02856971 4.04457194 10.13795471 5.11688232 C11.62539846 5.85814859 13.11369122 6.5977135 14.60279846 7.33563232 C17.58895321 8.81686807 20.57154339 10.30491715 23.55152893 11.79852295 C29.06814541 14.55722511 34.63151773 17.2157585 40.20045471 19.86688232 C50.59965278 24.84424699 60.97344707 29.87326204 71.34498596 34.90789795 C80.28703041 39.24814073 89.23587036 43.57331824 98.20045471 47.86688232 C108.59837782 52.84694024 118.97342912 57.87325332 129.34498596 62.90789795 C138.28703041 67.24814073 147.23587036 71.57331824 156.20045471 75.86688232 C163.04124409 79.14326039 169.87581808 82.43200475 176.70045471 85.74188232 C177.39464005 86.07854919 178.08882538 86.41521606 178.80404663 86.76208496 C182.34297381 88.47899249 185.881005 90.19772283 189.41798401 91.91864014 C196.00204618 95.11985111 202.59389891 98.30033899 209.21998596 101.41375732 C210.37240784 101.9577417 211.52482971 102.50172607 212.71217346 103.06219482 C214.8506973 104.06945221 216.99244809 105.06989801 219.13795471 106.06219482 C220.55527893 106.73121826 220.55527893 106.73121826 222.00123596 107.41375732 C222.81761536 107.7937085 223.63399475 108.17365967 224.47511292 108.56512451 C227.29449988 110.21438082 228.74931508 111.17480907 230.70045471 113.86688232 C231.31971622 117.55337703 231.23935005 121.22051756 231.20838928 124.9508667 C231.21774923 126.66685184 231.21774923 126.66685184 231.22729826 128.41750336 C231.24050655 131.59339248 231.23573443 134.76867168 231.22335339 137.94454575 C231.21431531 141.36929346 231.2282664 144.79395775 231.23927307 148.21868896 C231.25707629 154.92790034 231.25321037 161.63693291 231.24162251 168.34615135 C231.23259551 173.79798223 231.23136099 179.24976292 231.23571777 184.70159912 C231.23633071 185.47700342 231.23694364 186.25240771 231.23757514 187.05130911 C231.23885402 188.62644006 231.24015087 190.201571 231.24146551 191.77670193 C231.25287658 206.55293213 231.23974936 221.32906313 231.21826404 236.10527706 C231.20039256 248.78888267 231.20349652 261.47234186 231.22193909 274.15594482 C231.24333652 288.8786485 231.2517779 303.60126519 231.23949003 318.32398224 C231.23821581 319.89337665 231.23695833 321.46277108 231.23571777 323.03216553 C231.23479212 324.19047764 231.23479212 324.19047764 231.23384777 325.37219 C231.23039148 330.81860279 231.2362292 336.26496049 231.24563599 341.71136475 C231.25684486 348.34713723 231.25383952 354.9827204 231.23251301 361.61847115 C231.2219874 365.00534613 231.217906 368.3919053 231.23110962 371.77877808 C231.241984 375.44713656 231.22839825 379.11459721 231.20838928 382.78289795 C231.22177361 384.39552647 231.22177361 384.39552647 231.23542833 386.04073334 C231.15891567 393.23538188 231.15891567 393.23538188 228.80536366 396.47724819 C226.61383864 397.92406515 224.47748007 399.20271698 222.11329651 400.34954834 C220.75357979 401.01658531 220.75357979 401.01658531 219.36639404 401.69709778 C218.38737625 402.16691574 217.40835846 402.6367337 216.39967346 403.12078857 C215.37227554 403.62174545 214.34487762 404.12270233 213.28634644 404.63883972 C209.99058739 406.24344468 206.68938307 407.83647995 203.38795471 409.42938232 C201.23980826 410.47356393 199.09201821 411.51847908 196.94459534 412.56414795 C185.56470872 418.09797334 174.15620371 423.57155939 162.73709106 429.02389526 C155.24234105 432.60331743 147.76390159 436.21524078 140.29444885 439.84710693 C129.94235924 444.88003234 119.58201982 449.89498304 109.20045471 454.86688232 C99.51918527 459.50366732 89.85716421 464.17924465 80.20045471 468.86688232 C69.56693646 474.02869036 58.92392798 479.1694476 48.26246643 484.27337646 C42.23610584 487.16131335 36.21890597 490.06749993 30.20826721 492.98797607 C29.47319946 493.34501617 28.73813171 493.70205627 27.98078918 494.06991577 C24.3623149 495.82778703 20.74464648 497.58728745 17.12818909 499.3493042 C14.51183804 500.62339687 11.89173815 501.8891772 9.26783752 503.14764404 C7.02355803 504.22923563 4.7871653 505.3275065 2.5627594 506.44940186 C1.62593323 506.90814697 0.68910706 507.36689209 -0.27610779 507.83953857 C-1.06324158 508.23536133 -1.85037537 508.63118408 -2.66136169 509.03900146 C-9.51806535 511.19068406 -14.66254013 509.77634236 -20.85813904 506.57000732 C-21.90405464 506.0531562 -21.90405464 506.0531562 -22.97109985 505.52586365 C-25.23388411 504.40386343 -27.48510989 503.26047723 -29.73704529 502.11688232 C-31.31937735 501.32816984 -32.90255794 500.54115755 -34.48655701 499.75579834 C-37.64571042 498.1880294 -40.80133843 496.61350765 -43.95433044 495.03338623 C-49.57809829 492.22112002 -55.24715258 489.50640863 -60.92454529 486.80438232 C-70.56562938 482.19151533 -80.18479251 477.53428449 -89.79954529 472.86688232 C-99.45624066 468.17921548 -109.11828905 463.50369452 -118.79954529 458.86688232 C-129.1974684 453.88682441 -139.57251969 448.86051132 -149.94407654 443.8258667 C-158.88612099 439.48562392 -167.83496093 435.16044641 -176.79954529 430.86688232 C-183.64033465 427.59050426 -190.47490925 424.30176111 -197.29954529 420.99188232 C-198.34095924 420.48681404 -198.34095924 420.48681404 -199.40341187 419.97154236 C-202.9407714 418.25539008 -206.47724455 416.53743419 -210.01268005 414.81732178 C-216.62179096 411.60401585 -223.23891614 408.41177306 -229.88938904 405.28485107 C-231.05083435 404.73635498 -232.21227966 404.18785889 -233.40892029 403.6227417 C-235.57357591 402.60266044 -237.74139969 401.58926617 -239.91282654 400.5836792 C-240.86415466 400.13444092 -241.81548279 399.68520264 -242.79563904 399.22235107 C-243.62249207 398.83716309 -244.44934509 398.4519751 -245.30125427 398.05511475 C-247.29954529 396.86688232 -247.29954529 396.86688232 -249.29954529 393.86688232 C-249.55254495 391.70352131 -249.55254495 391.70352131 -249.55681419 389.13604832 C-249.56326309 388.15719121 -249.56971198 387.17833409 -249.57635629 386.16981465 C-249.57325909 385.09181613 -249.57016188 384.01381761 -249.56697083 382.90315247 C-249.57150194 381.76001679 -249.57603305 380.61688112 -249.58070147 379.43910497 C-249.59119404 376.26112152 -249.59266751 373.08327986 -249.59031272 369.90528452 C-249.58990531 366.47985428 -249.60093634 363.05445805 -249.61042786 359.62904358 C-249.62705483 352.91640481 -249.63253815 346.20380117 -249.63365261 339.49114353 C-249.6346022 334.03643818 -249.63870803 328.58174445 -249.64505386 323.12704277 C-249.66267025 307.67051602 -249.67189202 292.21401707 -249.67039292 276.75748021 C-249.670313 275.92386855 -249.67023309 275.09025689 -249.67015076 274.23138428 C-249.670069 273.39675789 -249.66998723 272.5621315 -249.669903 271.7022134 C-249.66908979 258.17061871 -249.68823502 244.63913525 -249.71642749 231.10757274 C-249.74513016 217.22185812 -249.75896926 203.3361978 -249.75723994 189.45045274 C-249.75657517 181.65124245 -249.76210543 173.85214879 -249.78359604 166.05296516 C-249.80177341 159.4135272 -249.80618365 152.77425873 -249.79257719 146.1348067 C-249.78603018 142.7459007 -249.785992 139.35732021 -249.80328369 135.96844482 C-249.81861783 132.29786705 -249.80950564 128.62815371 -249.79402161 124.95759583 C-249.80430873 123.88182803 -249.81459586 122.80606023 -249.82519472 121.69769341 C-249.75771833 114.49736257 -249.75771833 114.49736257 -247.40054989 111.25372314 C-245.26763142 109.84581647 -243.19721201 108.59069572 -240.89598083 107.47601318 C-239.59632637 106.83900734 -239.59632637 106.83900734 -238.27041626 106.18913269 C-237.33514603 105.74118851 -236.39987579 105.29324432 -235.43626404 104.83172607 C-234.45325821 104.35296524 -233.47025238 103.87420441 -232.4574585 103.38093567 C-229.30435786 101.84764594 -226.1458227 100.32593698 -222.98704529 98.80438232 C-220.93525221 97.80838042 -218.88381638 96.81164222 -216.83274841 95.81414795 C-205.70553145 90.41011129 -194.54966108 85.06616736 -183.38720703 79.73538208 C-175.87567699 76.146996 -168.38008438 72.5268346 -160.89353943 68.88665771 C-150.54144981 63.85373231 -140.1811104 58.83878161 -129.79954529 53.86688232 C-120.11827585 49.23009733 -110.45625479 44.55452 -100.79954529 39.86688232 C-90.16455323 34.70435886 -79.51996912 29.5631025 -68.85716248 24.45819092 C-62.8559687 21.58217282 -56.86354677 18.68866954 -50.87767029 15.78094482 C-50.14733582 15.42627136 -49.41700134 15.0715979 -48.66453552 14.70617676 C-45.07648925 12.96338604 -41.48920937 11.21904348 -37.90306091 9.47235107 C-35.28301765 8.19671175 -32.6591813 6.9294393 -30.03196716 5.66864014 C-27.57690583 4.49042067 -25.13840492 3.28501257 -22.70774841 2.05731201 C-21.58819763 1.50720459 -20.46864685 0.95709717 -19.31517029 0.39031982 C-18.34353943 -0.09775146 -17.37190857 -0.58582275 -16.37083435 -1.08868408 C-10.39850343 -3.11965639 -5.62860148 -2.73560687 0 0 Z " fill="#FED063" transform="translate(265.29954528808594,2.13311767578125)"/>
<path d="M0 0 C0.60111099 0.31185242 1.20222198 0.62370483 1.82154846 0.94500732 C2.4743428 1.26733337 3.12713715 1.58965942 3.79971313 1.92175293 C5.91994645 2.97247638 8.02856971 4.04457194 10.13795471 5.11688232 C11.62539846 5.85814859 13.11369122 6.5977135 14.60279846 7.33563232 C17.58895321 8.81686807 20.57154339 10.30491715 23.55152893 11.79852295 C29.06814541 14.55722511 34.63151773 17.2157585 40.20045471 19.86688232 C50.59965278 24.84424699 60.97344707 29.87326204 71.34498596 34.90789795 C80.28703041 39.24814073 89.23587036 43.57331824 98.20045471 47.86688232 C108.59837782 52.84694024 118.97342912 57.87325332 129.34498596 62.90789795 C138.28703041 67.24814073 147.23587036 71.57331824 156.20045471 75.86688232 C163.04124409 79.14326039 169.87581808 82.43200475 176.70045471 85.74188232 C177.39464005 86.07854919 178.08882538 86.41521606 178.80404663 86.76208496 C182.34297381 88.47899249 185.881005 90.19772283 189.41798401 91.91864014 C196.00204618 95.11985111 202.59389891 98.30033899 209.21998596 101.41375732 C210.37240784 101.9577417 211.52482971 102.50172607 212.71217346 103.06219482 C214.8506973 104.06945221 216.99244809 105.06989801 219.13795471 106.06219482 C220.55527893 106.73121826 220.55527893 106.73121826 222.00123596 107.41375732 C222.81761536 107.7937085 223.63399475 108.17365967 224.47511292 108.56512451 C227.29449988 110.21438082 228.74931508 111.17480907 230.70045471 113.86688232 C231.31971622 117.55337703 231.23935005 121.22051756 231.20838928 124.9508667 C231.21774923 126.66685184 231.21774923 126.66685184 231.22729826 128.41750336 C231.24050655 131.59339248 231.23573443 134.76867168 231.22335339 137.94454575 C231.21431531 141.36929346 231.2282664 144.79395775 231.23927307 148.21868896 C231.25707629 154.92790034 231.25321037 161.63693291 231.24162251 168.34615135 C231.23259551 173.79798223 231.23136099 179.24976292 231.23571777 184.70159912 C231.23633071 185.47700342 231.23694364 186.25240771 231.23757514 187.05130911 C231.23885402 188.62644006 231.24015087 190.201571 231.24146551 191.77670193 C231.25287658 206.55293213 231.23974936 221.32906313 231.21826404 236.10527706 C231.20039256 248.78888267 231.20349652 261.47234186 231.22193909 274.15594482 C231.24333652 288.8786485 231.2517779 303.60126519 231.23949003 318.32398224 C231.23821581 319.89337665 231.23695833 321.46277108 231.23571777 323.03216553 C231.23479212 324.19047764 231.23479212 324.19047764 231.23384777 325.37219 C231.23039148 330.81860279 231.2362292 336.26496049 231.24563599 341.71136475 C231.25684486 348.34713723 231.25383952 354.9827204 231.23251301 361.61847115 C231.2219874 365.00534613 231.217906 368.3919053 231.23110962 371.77877808 C231.241984 375.44713656 231.22839825 379.11459721 231.20838928 382.78289795 C231.22177361 384.39552647 231.22177361 384.39552647 231.23542833 386.04073334 C231.15891567 393.23538188 231.15891567 393.23538188 228.80536366 396.47724819 C226.61383864 397.92406515 224.47748007 399.20271698 222.11329651 400.34954834 C220.75357979 401.01658531 220.75357979 401.01658531 219.36639404 401.69709778 C218.38737625 402.16691574 217.40835846 402.6367337 216.39967346 403.12078857 C215.37227554 403.62174545 214.34487762 404.12270233 213.28634644 404.63883972 C209.99058739 406.24344468 206.68938307 407.83647995 203.38795471 409.42938232 C201.23980826 410.47356393 199.09201821 411.51847908 196.94459534 412.56414795 C185.56470872 418.09797334 174.15620371 423.57155939 162.73709106 429.02389526 C155.24234105 432.60331743 147.76390159 436.21524078 140.29444885 439.84710693 C129.94235924 444.88003234 119.58201982 449.89498304 109.20045471 454.86688232 C99.51918527 459.50366732 89.85716421 464.17924465 80.20045471 468.86688232 C69.56693646 474.02869036 58.92392798 479.1694476 48.26246643 484.27337646 C42.23610584 487.16131335 36.21890597 490.06749993 30.20826721 492.98797607 C29.47319946 493.34501617 28.73813171 493.70205627 27.98078918 494.06991577 C24.3623149 495.82778703 20.74464648 497.58728745 17.12818909 499.3493042 C14.51183804 500.62339687 11.89173815 501.8891772 9.26783752 503.14764404 C7.02355803 504.22923563 4.7871653 505.3275065 2.5627594 506.44940186 C1.62593323 506.90814697 0.68910706 507.36689209 -0.27610779 507.83953857 C-1.06324158 508.23536133 -1.85037537 508.63118408 -2.66136169 509.03900146 C-9.51806535 511.19068406 -14.66254013 509.77634236 -20.85813904 506.57000732 C-21.90405464 506.0531562 -21.90405464 506.0531562 -22.97109985 505.52586365 C-25.23388411 504.40386343 -27.48510989 503.26047723 -29.73704529 502.11688232 C-31.31937735 501.32816984 -32.90255794 500.54115755 -34.48655701 499.75579834 C-37.64571042 498.1880294 -40.80133843 496.61350765 -43.95433044 495.03338623 C-49.57809829 492.22112002 -55.24715258 489.50640863 -60.92454529 486.80438232 C-70.56562938 482.19151533 -80.18479251 477.53428449 -89.79954529 472.86688232 C-99.45624066 468.17921548 -109.11828905 463.50369452 -118.79954529 458.86688232 C-129.1974684 453.88682441 -139.57251969 448.86051132 -149.94407654 443.8258667 C-158.88612099 439.48562392 -167.83496093 435.16044641 -176.79954529 430.86688232 C-183.64033465 427.59050426 -190.47490925 424.30176111 -197.29954529 420.99188232 C-198.34095924 420.48681404 -198.34095924 420.48681404 -199.40341187 419.97154236 C-202.9407714 418.25539008 -206.47724455 416.53743419 -210.01268005 414.81732178 C-216.62179096 411.60401585 -223.23891614 408.41177306 -229.88938904 405.28485107 C-231.05083435 404.73635498 -232.21227966 404.18785889 -233.40892029 403.6227417 C-235.57357591 402.60266044 -237.74139969 401.58926617 -239.91282654 400.5836792 C-240.86415466 400.13444092 -241.81548279 399.68520264 -242.79563904 399.22235107 C-243.62249207 398.83716309 -244.44934509 398.4519751 -245.30125427 398.05511475 C-247.29954529 396.86688232 -247.29954529 396.86688232 -249.29954529 393.86688232 C-249.55254495 391.70352131 -249.55254495 391.70352131 -249.55681419 389.13604832 C-249.56326309 388.15719121 -249.56971198 387.17833409 -249.57635629 386.16981465 C-249.57325909 385.09181613 -249.57016188 384.01381761 -249.56697083 382.90315247 C-249.57150194 381.76001679 -249.57603305 380.61688112 -249.58070147 379.43910497 C-249.59119404 376.26112152 -249.59266751 373.08327986 -249.59031272 369.90528452 C-249.58990531 366.47985428 -249.60093634 363.05445805 -249.61042786 359.62904358 C-249.62705483 352.91640481 -249.63253815 346.20380117 -249.63365261 339.49114353 C-249.6346022 334.03643818 -249.63870803 328.58174445 -249.64505386 323.12704277 C-249.66267025 307.67051602 -249.67189202 292.21401707 -249.67039292 276.75748021 C-249.670313 275.92386855 -249.67023309 275.09025689 -249.67015076 274.23138428 C-249.670069 273.39675789 -249.66998723 272.5621315 -249.669903 271.7022134 C-249.66908979 258.17061871 -249.68823502 244.63913525 -249.71642749 231.10757274 C-249.74513016 217.22185812 -249.75896926 203.3361978 -249.75723994 189.45045274 C-249.75657517 181.65124245 -249.76210543 173.85214879 -249.78359604 166.05296516 C-249.80177341 159.4135272 -249.80618365 152.77425873 -249.79257719 146.1348067 C-249.78603018 142.7459007 -249.785992 139.35732021 -249.80328369 135.96844482 C-249.81861783 132.29786705 -249.80950564 128.62815371 -249.79402161 124.95759583 C-249.80430873 123.88182803 -249.81459586 122.80606023 -249.82519472 121.69769341 C-249.75771833 114.49736257 -249.75771833 114.49736257 -247.40054989 111.25372314 C-245.26763142 109.84581647 -243.19721201 108.59069572 -240.89598083 107.47601318 C-239.59632637 106.83900734 -239.59632637 106.83900734 -238.27041626 106.18913269 C-237.33514603 105.74118851 -236.39987579 105.29324432 -235.43626404 104.83172607 C-234.45325821 104.35296524 -233.47025238 103.87420441 -232.4574585 103.38093567 C-229.30435786 101.84764594 -226.1458227 100.32593698 -222.98704529 98.80438232 C-220.93525221 97.80838042 -218.88381638 96.81164222 -216.83274841 95.81414795 C-205.70553145 90.41011129 -194.54966108 85.06616736 -183.38720703 79.73538208 C-175.87567699 76.146996 -168.38008438 72.5268346 -160.89353943 68.88665771 C-150.54144981 63.85373231 -140.1811104 58.83878161 -129.79954529 53.86688232 C-120.11827585 49.23009733 -110.45625479 44.55452 -100.79954529 39.86688232 C-90.16455323 34.70435886 -79.51996912 29.5631025 -68.85716248 24.45819092 C-62.8559687 21.58217282 -56.86354677 18.68866954 -50.87767029 15.78094482 C-50.14733582 15.42627136 -49.41700134 15.0715979 -48.66453552 14.70617676 C-45.07648925 12.96338604 -41.48920937 11.21904348 -37.90306091 9.47235107 C-35.28301765 8.19671175 -32.6591813 6.9294393 -30.03196716 5.66864014 C-27.57690583 4.49042067 -25.13840492 3.28501257 -22.70774841 2.05731201 C-21.58819763 1.50720459 -20.46864685 0.95709717 -19.31517029 0.39031982 C-18.34353943 -0.09775146 -17.37190857 -0.58582275 -16.37083435 -1.08868408 C-10.39850343 -3.11965639 -5.62860148 -2.73560687 0 0 Z M-157.93235779 84.94500732 C-158.5930426 85.26774124 -159.25372742 85.59047516 -159.93443298 85.92298889 C-162.10042599 86.98235896 -164.26239303 88.04969849 -166.42454529 89.11688232 C-167.9220994 89.85054784 -169.41998626 90.58353452 -170.91819763 91.31585693 C-173.94344589 92.79487127 -176.96756858 94.27614891 -179.99095154 95.75897217 C-185.9539243 98.68014806 -191.93684016 101.55925041 -197.92454529 104.42938232 C-198.93073914 104.91213623 -199.93693298 105.39489014 -200.97361755 105.89227295 C-208.72393812 109.60466032 -216.49767138 113.26406576 -224.29954529 116.86688232 C-222.11134098 119.27873335 -220.08030189 120.63344665 -217.13548279 122.00360107 C-216.27777283 122.4076416 -215.42006287 122.81168213 -214.53636169 123.22796631 C-213.59196228 123.66568359 -212.64756287 124.10340088 -211.67454529 124.55438232 C-209.58547793 125.53764119 -207.49696943 126.52208802 -205.40892029 127.50750732 C-204.27132263 128.04311279 -203.13372498 128.57871826 -201.96165466 129.1305542 C-195.96798962 131.96376072 -190.01053293 134.87231791 -184.04862976 137.77157593 C-173.64507785 142.83015768 -163.2329695 147.87014688 -152.79954529 152.86688232 C-143.11827445 157.50366799 -133.45634065 162.17941957 -123.79954529 166.86688232 C-113.89116032 171.67587207 -103.97878293 176.4760357 -94.04954529 181.24188232 C-93.05559753 181.71931885 -92.06164978 182.19675537 -91.0375824 182.68865967 C-86.08764394 185.06289029 -81.13068717 187.42099244 -76.16282654 189.75750732 C-75.1853949 190.2185083 -74.20796326 190.67950928 -73.20091248 191.15447998 C-71.35829923 192.02254288 -69.51398931 192.88701678 -67.66770935 193.74725342 C-66.85656677 194.12962158 -66.04542419 194.51198975 -65.20970154 194.90594482 C-64.49950867 195.23803955 -63.7893158 195.57013428 -63.05760193 195.91229248 C-61.29954529 196.86688232 -61.29954529 196.86688232 -59.29954529 198.86688232 C-58.75367373 204.87146948 -58.75367373 204.87146948 -60.36204529 207.80438232 C-63.32968867 209.43179966 -66.03803638 209.38181765 -69.29954529 208.86688232 C-72.78329672 207.54520005 -76.01684329 205.80925827 -79.29954529 204.05438232 C-81.28424491 203.02775089 -83.26995231 202.00306576 -85.25657654 200.98016357 C-86.26671814 200.4563208 -87.27685974 199.93247803 -88.31761169 199.39276123 C-92.83075358 197.08335098 -97.40457297 194.90956941 -101.98704529 192.74188232 C-111.90983488 188.02591223 -121.79549278 183.23604585 -131.67454529 178.42938232 C-142.72505922 173.05392125 -153.78559494 167.70111904 -164.86936951 162.39447021 C-172.81188283 158.58865566 -180.73837638 154.75043835 -188.66151428 150.9045105 C-192.85466607 148.8694921 -197.04885955 146.83662131 -201.24301147 144.80366516 C-204.55407937 143.19860955 -207.86467533 141.59259965 -211.17405701 139.98406982 C-214.6929368 138.27395788 -218.21482945 136.57011346 -221.73704529 134.86688232 C-223.30905701 134.1011792 -223.30905701 134.1011792 -224.91282654 133.32000732 C-225.86415466 132.86110107 -226.81548279 132.40219482 -227.79563904 131.92938232 C-228.62249207 131.52848389 -229.44934509 131.12758545 -230.30125427 130.71453857 C-232.24463788 129.73671252 -232.24463788 129.73671252 -234.29954529 129.86688232 C-234.29954529 214.34688232 -234.29954529 298.82688232 -234.29954529 385.86688232 C-203.16645621 401.13549904 -203.16645621 401.13549904 -171.93235779 416.17547607 C-164.57751059 419.67926993 -157.25301614 423.24585989 -149.92454529 426.80438232 C-140.22628631 431.51310836 -130.52293849 436.2101922 -120.79954529 440.86688232 C-111.11827561 445.50366743 -101.45626908 450.17927377 -91.79954529 454.86688232 C-81.12562884 460.04815456 -70.44431088 465.21292958 -59.7407074 470.33270264 C-53.79467126 473.17948358 -47.86138545 476.05112972 -41.93626404 478.94110107 C-39.78499979 479.98862392 -37.63361888 481.03590687 -35.48222351 482.0831604 C-34.0762112 482.76868095 -32.67088817 483.45561715 -31.26628113 484.14401245 C-29.31158218 485.10195928 -27.35464202 486.05517808 -25.39720154 487.00750732 C-24.26806335 487.55954834 -23.13892517 488.11158936 -21.97557068 488.68035889 C-19.4827018 490.0019935 -19.4827018 490.0019935 -17.29954529 489.86688232 C-17.29954529 405.38688232 -17.29954529 320.90688232 -17.29954529 233.86688232 C-23.56954529 230.89688232 -29.83954529 227.92688232 -36.29954529 224.86688232 C-39.29954529 221.86688232 -39.29954529 221.86688232 -39.69798279 219.89422607 C-39.6754029 217.8808531 -39.49044336 215.87131204 -39.29954529 213.86688232 C-35.67904283 211.45321402 -34.5843195 211.35094048 -30.29954529 211.86688232 C-26.14993673 213.52766034 -22.23644034 215.67071067 -18.28782654 217.7555542 C-17.07159607 218.36947021 -17.07159607 218.36947021 -15.83079529 218.99578857 C-15.10440857 219.37807617 -14.37802185 219.76036377 -13.62962341 220.15423584 C-8.35921911 221.7661711 -3.8124183 219.37775709 0.89186096 217.05828857 C2.07449524 216.48022461 3.25712952 215.90216064 4.4756012 215.30657959 C5.09409943 214.99987335 5.71259766 214.69316711 6.34983826 214.37716675 C8.28184126 213.42002566 10.21891475 212.47395802 12.1577301 211.53070068 C18.14494456 208.61425368 24.11361394 205.66305645 30.06764221 202.67938232 C31.01695618 202.21072754 31.96627014 201.74207275 32.9443512 201.25921631 C34.69542727 200.3947088 36.44019849 199.51726921 38.17726135 198.62493896 C41.81441168 196.83886856 44.03129444 195.84333639 48.14186096 195.98797607 C50.70045471 196.86688232 50.70045471 196.86688232 52.70045471 198.86688232 C53.33884757 204.61241804 53.33884757 204.61241804 52.70045471 206.86688232 C47.37883268 210.37859761 41.52295843 213.02819673 35.82545471 215.86688232 C34.80065002 216.38121826 33.77584534 216.8955542 32.71998596 217.42547607 C21.44739304 223.05502248 10.07275082 228.4279581 -1.29954529 233.86688232 C-1.29954529 318.34688232 -1.29954529 402.82688232 -1.29954529 489.86688232 C2.54628986 488.58493727 5.7766323 487.45593113 9.33106995 485.70306396 C10.63049782 485.06583153 10.63049782 485.06583153 11.95617676 484.41572571 C12.88112442 483.95745895 13.80607208 483.4991922 14.75904846 483.02703857 C15.7392244 482.54544785 16.71940033 482.06385712 17.72927856 481.56767273 C20.86727775 480.02514998 24.00273303 478.4775415 27.13795471 476.92938232 C31.21909187 474.91844822 35.30130243 472.90970402 39.38404846 470.90203857 C40.40206543 470.40117233 41.4200824 469.90030609 42.46894836 469.38426208 C51.42196369 464.98698895 60.41666573 460.67979338 69.42042542 456.38763428 C75.99750876 453.25159001 82.55357053 450.07286431 89.10646057 446.88665771 C99.45855019 441.85373231 109.8188896 436.83878161 120.20045471 431.86688232 C129.88172509 427.23009688 139.543688 422.55440344 149.20045471 417.86688232 C163.01542286 411.1614684 176.85183301 404.50268023 190.70045471 397.86688232 C198.95045471 393.90688232 207.20045471 389.94688232 215.70045471 385.86688232 C215.70045471 301.38688232 215.70045471 216.90688232 215.70045471 129.86688232 C211.88610893 131.13833092 208.68138965 132.24963567 205.15821838 133.98651123 C203.88980354 134.60823715 203.88980354 134.60823715 202.59576416 135.24252319 C201.69574173 135.68832733 200.7957193 136.13413147 199.86842346 136.59344482 C198.91840958 137.05995453 197.96839569 137.52646423 196.98959351 138.0071106 C193.95394228 139.49846409 190.92082309 140.99487877 187.88795471 142.49188232 C183.92408401 144.44438538 179.9590481 146.39450684 175.99342346 148.34344482 C175.0331424 148.81598694 174.07286133 149.28852905 173.08348083 149.77539062 C166.30962542 153.10067085 159.50323857 156.34925298 152.65264893 159.51351929 C149.454357 160.8479704 149.454357 160.8479704 146.70045471 162.86688232 C146.59647305 165.73681253 146.55684368 168.58346696 146.55860901 171.45404053 C146.55513458 172.35484344 146.55166016 173.25564636 146.54808044 174.18374634 C146.54070887 176.14701528 146.53537099 178.11029264 146.53178978 180.07357216 C146.52464721 183.17907671 146.5089973 186.28442114 146.490448 189.38987732 C146.43787466 198.22195229 146.38998934 207.05394137 146.37452698 215.88616943 C146.36445909 221.28209374 146.3351626 226.67761857 146.29320717 232.07338524 C146.28087278 234.13266163 146.27578034 236.1919944 146.2780056 238.25130653 C146.28035211 241.13181966 146.25824102 244.01118256 146.23048401 246.89154053 C146.23708542 247.74520706 146.24368683 248.5988736 146.25048828 249.47840881 C146.15925348 255.23430795 146.15925348 255.23430795 143.95643616 258.27146912 C141.71089245 259.85950083 139.54916267 261.16821073 137.07472229 262.36883545 C136.1630983 262.81609985 135.2514743 263.26336426 134.31222534 263.72418213 C133.33303635 264.19408569 132.35384735 264.66398926 131.34498596 265.14813232 C130.3287767 265.64349487 129.31256744 266.13885742 128.26556396 266.64923096 C125.01839488 268.22953454 121.76572262 269.79814084 118.51295471 271.36688232 C116.34268098 272.42214858 114.1727551 273.47813056 112.00318909 274.53485107 C96.28532872 282.17220329 96.28532872 282.17220329 89.72267151 285.1696167 C89.02594833 285.48813599 88.32922516 285.80665527 87.61138916 286.13482666 C84.8281557 287.20104943 82.62789009 287.35478822 79.70045471 286.86688232 C78.06131268 285.58512402 78.06131268 285.58512402 76.70045471 283.86688232 C76.39040052 280.8113695 76.26302644 277.95565011 76.26808167 274.8973999 C76.25789001 273.98012619 76.24769836 273.06285248 76.23719788 272.11778259 C76.20697487 269.08226487 76.19778769 266.04706223 76.18873596 263.01141357 C76.17189619 260.90818729 76.1537469 258.80497112 76.13433838 256.70176697 C76.08675618 251.16322996 76.05699996 245.62473392 76.03089905 240.08605957 C76.00113499 234.4354442 75.95459043 228.78497012 75.90943909 223.13446045 C75.82331244 212.04534152 75.7560088 200.95619359 75.70045471 189.86688232 C75.01775513 189.53936981 74.33505554 189.2118573 73.63166809 188.87442017 C61.23214082 182.92553439 48.83286337 176.97633727 36.45045471 170.99188232 C35.2427881 170.40851654 34.03510525 169.82518435 32.82740784 169.24188232 C30.34818021 168.04441733 27.86901846 166.8468161 25.38990784 165.64910889 C19.93014222 163.01153225 14.46950481 160.37576153 9.00892639 157.73986816 C5.98939949 156.28228149 2.96993003 154.82457584 -0.04954529 153.36688232 C-1.25787835 152.78354842 -2.46621168 152.20021509 -3.67454529 151.61688232 C-25.42454529 141.11688232 -47.17454529 130.61688232 -68.92454529 120.11688232 C-69.52265015 119.8281424 -70.120755 119.53940247 -70.73698425 119.24191284 C-71.94552214 118.65848006 -73.15405892 118.075045 -74.3625946 117.49160767 C-77.38028934 116.03477726 -80.39800305 114.57798619 -83.41575623 113.12127686 C-90.12414488 109.8829903 -96.83212226 106.64385536 -103.5393219 103.40310669 C-107.76293601 101.36260504 -111.98812704 99.32539158 -116.21360779 97.28875732 C-120.40421998 95.26809759 -124.5908481 93.23972884 -128.77159119 91.19876099 C-131.65404879 89.79264242 -134.53972302 88.3931417 -137.42454529 86.99188232 C-138.47996521 86.47351807 -139.53538513 85.95515381 -140.62278748 85.42108154 C-141.59119568 84.95202393 -142.55960388 84.48296631 -143.55735779 83.99969482 C-144.82797058 83.37925293 -144.82797058 83.37925293 -146.12425232 82.74627686 C-150.7192923 80.88866361 -153.82297115 82.90084158 -157.93235779 84.94500732 Z " fill="#030201" transform="translate(265.29954528808594,2.13311767578125)"/>
<path d="M0 0 C3.78058338 1.26019446 6.95747231 2.35233913 10.44702148 4.07202148 C11.27413132 4.47723526 12.10124115 4.88244904 12.95341492 5.29994202 C13.83374893 5.73592209 14.71408295 6.17190216 15.62109375 6.62109375 C17.01307732 7.30461159 17.01307732 7.30461159 18.43318176 8.00193787 C20.41226806 8.97417367 22.39053303 9.94808287 24.36804199 10.92352295 C29.5060206 13.45777547 34.6499398 15.97992339 39.79296875 18.50390625 C40.79159943 18.99443481 41.7902301 19.48496338 42.81912231 19.99035645 C49.61092928 23.32489738 56.41566536 26.6283474 63.25 29.875 C72.31406218 34.18350143 81.34714304 38.55379812 90.375 42.9375 C101.04599343 48.1185108 111.71958403 53.29334134 122.42871094 58.39526367 C127.76712942 60.94417175 133.08397936 63.53084742 138.37713623 66.17224121 C141.38106042 67.66993602 144.39000637 69.15739721 147.39916992 70.64453125 C148.86897044 71.37451444 150.33632205 72.10945187 151.80102539 72.84960938 C153.85350749 73.88635479 155.9138841 74.90560239 157.9765625 75.921875 C158.58283478 76.23372742 159.18910706 76.54557983 159.81375122 76.86688232 C164.02152751 78.91167515 167.351421 79.41392908 172 79 C174.40083438 77.64114884 174.40083438 77.64114884 176 76 C178.81414352 77.30899706 181.62602537 78.62278165 184.4375 79.9375 C185.23994141 80.31068359 186.04238281 80.68386719 186.86914062 81.06835938 C188.01479492 81.60493164 188.01479492 81.60493164 189.18359375 82.15234375 C189.89056396 82.48226318 190.59753418 82.81218262 191.32592773 83.15209961 C193 84 193 84 194 85 C194.12375 86.11375 194.2475 87.2275 194.375 88.375 C194.68662875 92.26331195 194.68662875 92.26331195 198 95 C204.27 97.97 210.54 100.94 217 104 C217 188.48 217 272.96 217 360 C213.15416485 358.71805495 209.92382241 357.58904881 206.36938477 355.83618164 C205.06995689 355.1989492 205.06995689 355.1989492 203.74427795 354.54884338 C202.81933029 354.09057663 201.89438263 353.63230988 200.94140625 353.16015625 C199.96123032 352.67856552 198.98105438 352.19697479 197.97117615 351.70079041 C194.83317696 350.15826766 191.69772168 348.61065918 188.5625 347.0625 C184.48136284 345.0515659 180.39915229 343.04282169 176.31640625 341.03515625 C175.29838928 340.53429001 174.28037231 340.03342377 173.23150635 339.51737976 C164.27849103 335.12010663 155.28378898 330.81291106 146.2800293 326.52075195 C139.70294595 323.38470768 133.14688418 320.20598198 126.59399414 317.01977539 C116.24190453 311.98684999 105.88156511 306.97189928 95.5 302 C85.81872962 297.36321456 76.15676671 292.68752112 66.5 288 C52.68503185 281.29458608 38.84862171 274.6357979 25 268 C16.75 264.04 8.5 260.08 0 256 C0 171.52 0 87.04 0 0 Z " fill="#FEC24F" transform="translate(31,132)"/>
<path d="M0 0 C0.7189444 0.35542877 1.43788879 0.71085754 2.17861938 1.07705688 C3.41939743 1.68499084 3.41939743 1.68499084 4.6852417 2.3052063 C5.570737 2.74634766 6.4562323 3.18748901 7.36856079 3.64199829 C8.76266678 4.32763855 8.76266678 4.32763855 10.18493652 5.02713013 C13.1992367 6.51078617 16.20960395 8.0022503 19.22012329 9.49356079 C22.32704143 11.02447152 25.43499574 12.55326444 28.54299927 14.08197021 C30.57514767 15.08168881 32.60697009 16.08207032 34.63845825 17.08312988 C41.43627666 20.43206138 48.24896346 23.74439119 55.09512329 26.99356079 C64.15936073 31.30168826 73.19226999 35.67236068 82.22012329 40.05606079 C91.91838227 44.76478683 101.62173009 49.46187067 111.34512329 54.11856079 C121.74306032 59.09858936 132.11809788 64.12493188 142.48965454 69.15957642 C151.43169907 73.49981924 160.3805434 77.82498718 169.34512329 82.11856079 C179.50531892 86.98488054 189.64646167 91.88993495 199.78262329 96.80606079 C200.52206177 97.16466187 201.26150024 97.52326294 202.02334595 97.89273071 C204.11899925 98.9091811 206.21452515 99.9258934 208.30996704 100.94277954 C208.94204575 101.24947067 209.57412445 101.5561618 210.22535706 101.87214661 C212.43640319 102.94563095 214.64672162 104.01935996 216.84512329 105.11856079 C216.84512329 105.77856079 216.84512329 106.43856079 216.84512329 107.11856079 C214.10156203 108.48734627 211.35157224 109.83869256 208.59512329 111.18106079 C207.8178186 111.5710022 207.04051392 111.9609436 206.23965454 112.36270142 C205.48555298 112.72686157 204.73145142 113.09102173 203.95449829 113.46621704 C203.26323853 113.80661011 202.57197876 114.14700317 201.85977173 114.49771118 C199.40067604 115.25552509 198.2339301 115.01964965 195.84512329 114.11856079 C194.85512329 113.45856079 193.86512329 112.79856079 192.84512329 112.11856079 C187.20082505 112.34399483 182.55752722 114.96960971 177.60684204 117.45059204 C176.72663895 117.8836113 175.84643585 118.31663055 174.93955994 118.76277161 C172.13355873 120.14487317 169.3329584 121.53751997 166.53262329 122.93106079 C163.74199679 124.3117628 160.95028426 125.69023047 158.15782166 127.06721497 C156.42457872 127.92275245 154.69255224 128.78076062 152.96199036 129.64170837 C148.97582131 131.61728518 144.97448963 133.55540795 140.93228149 135.41397095 C140.21909256 135.74249054 139.50590363 136.07101013 138.77110291 136.40948486 C135.05578209 137.7773314 132.38656405 136.78659537 128.88809204 135.27041626 C125.93024089 133.88679622 123.02643704 132.40629677 120.12246704 130.91348267 C115.89291372 128.82140486 112.67222913 127.36602042 107.84512329 128.11856079 C106.69270142 128.96354126 106.69270142 128.96354126 105.51699829 129.82559204 C102.84512329 131.11856079 102.84512329 131.11856079 100.87832642 130.74502563 C98.53776401 129.89348798 96.33601863 128.89249824 94.09512329 127.80606079 C93.31524048 127.47799438 92.53535767 127.14992798 91.73184204 126.81192017 C89.47826633 125.75175976 87.68045907 124.80668019 85.84512329 123.11856079 C85.39004517 121.2147522 85.39004517 121.2147522 85.32949829 119.13809204 C85.24963733 116.08558702 85.24963733 116.08558702 83.48452759 113.71426392 C81.33017961 112.34748222 79.14558026 111.22350469 76.84512329 110.11856079 C75.90684692 109.64466919 74.96857056 109.17077759 74.00186157 108.68252563 C70.65472307 107.01811874 67.2848235 105.40855924 63.90762329 103.80606079 C62.63555201 103.19804616 61.36374837 102.5894713 60.0921936 101.9803772 C58.08755571 101.02019205 56.0827594 100.06035461 54.07714844 99.10220337 C47.10191092 95.76920556 40.14808604 92.39252315 33.19494629 89.01373291 C21.93636509 83.54389538 10.66436121 78.10309549 -0.62460327 72.69619751 C-10.02393495 68.19039478 -19.40153167 63.64020528 -28.77825928 59.08761597 C-39.13376012 54.06019143 -49.50041767 49.0573367 -59.88925171 44.09902954 C-66.68379407 40.8494658 -73.4277171 37.50532247 -80.15487671 34.11856079 C-77.05502768 31.62080406 -73.88738959 29.89920941 -70.29940796 28.18496704 C-68.54781372 27.34397461 -68.54781372 27.34397461 -66.76083374 26.48599243 C-65.4963925 25.88425516 -64.23190574 25.28261354 -62.96737671 24.68106079 C-61.66363571 24.05703313 -60.3600898 23.43259775 -59.05673218 22.80776978 C-56.39045498 21.53027084 -53.72306891 20.25513159 -51.05477905 18.98184204 C-46.34426014 16.73304854 -41.64209402 14.46698892 -36.93978882 12.20108032 C-33.85532397 10.71735335 -30.76727502 9.24133801 -27.67831421 7.76699829 C-24.25335406 6.13142425 -20.84189321 4.47353437 -17.44393921 2.78262329 C-16.74961792 2.44287476 -16.05529663 2.10312622 -15.3399353 1.75308228 C-13.57093195 0.88732855 -11.80788868 0.00942374 -10.04550171 -0.86972046 C-6.19302481 -2.21808737 -3.72663639 -1.52435795 0 0 Z " fill="#FDDF7C" transform="translate(121.15487670898438,85.88143920898438)"/>
<path d="M0 0 C0.8544873 0.41048584 1.70897461 0.82097168 2.58935547 1.24389648 C3.52537598 1.69837158 4.46139648 2.15284668 5.42578125 2.62109375 C6.42109863 3.10070557 7.41641602 3.58031738 8.44189453 4.07446289 C11.25795308 5.4329903 14.07218291 6.79521464 16.88531494 8.15979004 C18.8052899 9.09109711 20.72560815 10.02169328 22.64599609 10.95214844 C28.23513224 13.66046324 33.82374153 16.36985941 39.41088867 19.08227539 C47.67703992 23.0946762 55.95110822 27.08973267 64.23828125 31.05859375 C74.63621828 36.03862232 85.01125584 41.06496484 95.3828125 46.09960938 C104.32485695 50.43985216 113.27369689 54.76502966 122.23828125 59.05859375 C131.91953982 63.69540706 141.5814427 68.37121859 151.23828125 73.05859375 C179.40213512 86.73960739 179.40213512 86.73960739 207.73828125 100.05859375 C205.55007694 102.47044478 203.51903786 103.82515808 200.57421875 105.1953125 C199.71481689 105.60023926 198.85541504 106.00516602 197.9699707 106.42236328 C197.02726318 106.85919434 196.08455566 107.29602539 195.11328125 107.74609375 C193.05146539 108.71483172 190.99030882 109.68497369 188.9296875 110.65625 C187.79547363 111.19008301 186.66125977 111.72391602 185.49267578 112.27392578 C181.31720935 114.25051509 177.16608543 116.27623674 173.015625 118.3046875 C171.90287201 118.84783852 171.90287201 118.84783852 170.76763916 119.40196228 C167.7884651 120.85641811 164.80945743 122.31116809 161.83343506 123.77206421 C159.7369692 124.8006952 157.63824785 125.82458918 155.5390625 126.84765625 C154.91080063 127.15759018 154.28253876 127.46752411 153.63523865 127.78684998 C147.32519438 130.85230401 147.32519438 130.85230401 144.73828125 131.05859375 C142.26245117 130.15332031 142.26245117 130.15332031 139.46875 128.69921875 C138.42775146 128.16643311 137.38675293 127.63364746 136.31420898 127.0847168 C135.19602783 126.49859619 134.07784668 125.91247559 132.92578125 125.30859375 C131.1479203 124.39764699 129.37004522 123.48672464 127.59083557 122.57841492 C126.38219175 121.96115751 125.1742184 121.34258557 123.96690369 120.72273254 C118.58342811 117.96217393 113.14377507 115.33410896 107.67578125 112.74609375 C98.21489123 108.25194097 88.78482197 103.69695696 79.36328125 99.12109375 C69.66513255 94.41214302 59.96167264 89.71528301 50.23828125 85.05859375 C39.84034422 80.07856518 29.46530666 75.05222266 19.09375 70.01757812 C10.15170464 65.6773349 1.20278898 61.3523192 -7.76171875 57.05859375 C-16.94330686 52.65925724 -26.11371001 48.2371889 -35.27636719 43.79858398 C-36.69565422 43.11110686 -38.11508171 42.4239196 -39.53466797 41.73706055 C-43.46950866 39.83287703 -47.40093896 37.92193987 -51.32806396 36.00189209 C-52.64859461 35.35769522 -53.97030594 34.71591442 -55.29302979 34.07623291 C-57.26067913 33.12420929 -59.22442152 32.16453111 -61.1875 31.203125 C-62.33259033 30.6460083 -63.47768066 30.0888916 -64.6574707 29.51489258 C-67.26171875 28.05859375 -67.26171875 28.05859375 -68.26171875 26.05859375 C-55.49657949 19.62592546 -42.72143043 13.22307491 -29.82421875 7.05859375 C-28.92179443 6.62699951 -28.01937012 6.19540527 -27.08959961 5.75073242 C-25.35934706 4.92734434 -23.62658324 4.10920857 -21.89111328 3.296875 C-20.0194138 2.41542098 -18.15664569 1.51489416 -16.30029297 0.6015625 C-15.32721191 0.13363281 -14.35413086 -0.33429687 -13.3515625 -0.81640625 C-12.47234131 -1.24695313 -11.59312012 -1.6775 -10.68725586 -2.12109375 C-6.55671602 -3.51803525 -3.76340033 -1.817342 0 0 Z " fill="#FDDF7C" transform="translate(263.26171875,18.94140625)"/>
<path d="M0 0 C3.72319507 1.4906519 7.28795222 3.27242299 10.875 5.0625 C11.95072266 5.58908203 13.02644531 6.11566406 14.13476562 6.65820312 C16.49372061 7.81298301 18.85085712 8.97092872 21.20605469 10.13330078 C27.24913953 13.11193419 33.31742503 16.03882574 39.38165283 18.97409058 C41.51327956 20.00643125 43.64420569 21.04020408 45.77490234 22.07446289 C54.00689248 26.07005218 62.24730152 30.0473061 70.5 34 C80.05485168 38.5771604 89.59311868 43.18776014 99.125 47.8125 C99.81970398 48.14953949 100.51440796 48.48657898 101.23016357 48.83383179 C104.04717192 50.20056019 106.86414013 51.56737128 109.68106079 52.9342804 C117.1607716 56.56366251 124.64196565 60.18997511 132.125 63.8125 C132.77384155 64.12660828 133.42268311 64.44071655 134.09118652 64.76434326 C143.06312148 69.10658911 152.04756459 73.42187367 161.04541016 77.71020508 C166.87721001 80.49400973 172.69579283 83.30410812 178.5078125 86.12890625 C179.24945648 86.48923447 179.99110046 86.84956268 180.75521851 87.22080994 C184.44519748 89.01396504 188.1341841 90.80912164 191.82177734 92.60717773 C193.18324335 93.26941965 194.54473316 93.9316126 195.90625 94.59375 C196.51888702 94.89330093 197.13152405 95.19285187 197.76272583 95.5014801 C201.79532431 97.46020144 205.86970404 99.26078911 210 101 C210 101.66 210 102.32 210 103 C204.56056287 105.69761632 199.11617272 108.38486389 193.66699219 111.06274414 C191.81501743 111.97464252 189.96441305 112.88932964 188.11523438 113.80688477 C185.45280006 115.1273663 182.78555403 116.43764955 180.1171875 117.74609375 C179.29507782 118.15653427 178.47296814 118.56697479 177.62594604 118.98985291 C167.61753504 123.86760837 167.61753504 123.86760837 162.98803711 122.33311462 C160.54290696 121.27667695 158.18584862 120.10734255 155.81640625 118.890625 C154.93289993 118.45294296 154.04939362 118.01526093 153.13911438 117.5643158 C150.2728191 116.14057915 147.41794244 114.69536102 144.5625 113.25 C142.58629196 112.26434042 140.60923765 111.2803758 138.63134766 110.2980957 C134.77368655 108.38093943 130.91940101 106.45727428 127.06787109 104.52783203 C121.36911316 101.67812571 115.63561522 98.91015155 109.875 96.1875 C100.76869454 91.85946743 91.69478556 87.46637311 82.625 83.0625 C72.84284503 78.31334151 63.05607982 73.57464042 53.25 68.875 C44.49426416 64.67851001 35.74383253 60.47124171 27 56.25 C26.40219727 55.96141113 25.80439453 55.67282227 25.18847656 55.37548828 C18.02342867 51.91590349 10.8616756 48.44957146 3.703125 44.9765625 C3.00602921 44.63839508 2.30893341 44.30022766 1.5907135 43.95181274 C-1.91137974 42.25275516 -5.41309807 40.55293062 -8.91430664 38.85205078 C-15.45688573 35.67539623 -22.00547713 32.51286862 -28.57421875 29.390625 C-29.73791992 28.83648926 -30.90162109 28.28235352 -32.10058594 27.71142578 C-34.27004191 26.68002946 -36.44118055 25.65216248 -38.61425781 24.62841797 C-39.56526367 24.17611816 -40.51626953 23.72381836 -41.49609375 23.2578125 C-42.32294678 22.8673877 -43.1497998 22.47696289 -44.00170898 22.07470703 C-46 21 -46 21 -48 19 C-46.82904785 18.42967041 -45.6580957 17.85934082 -44.45166016 17.27172852 C-40.11681102 15.16034224 -35.78202819 13.04881986 -31.44726562 10.93725586 C-29.56935411 10.02250502 -27.69142449 9.10779133 -25.81347656 8.19311523 C-23.11779117 6.88014281 -20.4221704 5.56703778 -17.7265625 4.25390625 C-16.88380768 3.84346573 -16.04105286 3.43302521 -15.17276001 3.01014709 C-14.39210175 2.62982834 -13.61144348 2.24950958 -12.80712891 1.85766602 C-12.11873932 1.52235367 -11.43034973 1.18704132 -10.72109985 0.84156799 C-6.76837696 -1.09119905 -4.26315232 -1.12132303 0 0 Z " fill="#FC7E85" transform="translate(181,56)"/>
<path d="M0 0 C0 25.74 0 51.48 0 78 C-38 97 -38 97 -41 97 C-41 71.26 -41 45.52 -41 19 C-35.72 16.36 -30.44 13.72 -25 11 C-22.93105469 9.948125 -20.86210937 8.89625 -18.73046875 7.8125 C-17.80298828 7.34199219 -16.87550781 6.87148437 -15.91992188 6.38671875 C-14.04531016 5.43534326 -12.17302689 4.47936993 -10.30273438 3.51953125 C-8.93665039 2.82923828 -8.93665039 2.82923828 -7.54296875 2.125 C-6.73883545 1.71507812 -5.93470215 1.30515625 -5.10620117 0.8828125 C-3 0 -3 0 0 0 Z " fill="#E4636D" transform="translate(397,173)"/>
<path d="M0 0 C3.08615199 1.06472428 5.93991411 2.50427211 8.84375 3.98828125 C9.68262756 4.4028508 10.52150513 4.81742035 11.38580322 5.24455261 C14.09709174 6.58779091 16.79843623 7.94982459 19.5 9.3125 C21.35640088 10.23707481 23.21349989 11.16024918 25.07128906 12.08203125 C27.83228025 13.45233935 30.59268841 14.82369985 33.35040283 16.20059204 C41.32741905 20.18180905 49.36686741 24.01722871 57.46289062 27.7512207 C61.71305282 29.74759852 65.64955312 31.62280304 69 35 C69.92485966 37.99286882 69.45860943 39.78973401 69 43 C67.4375 45 67.4375 45 65 46 C59.53198494 46.44457088 55.91809755 45.39446235 51.2109375 42.80078125 C49.79905807 42.05970854 48.38587241 41.3211213 46.97167969 40.58447266 C46.18853394 40.17328186 45.40538818 39.76209106 44.59851074 39.33843994 C39.56482025 36.74568853 34.4510811 34.31538138 29.3515625 31.85546875 C27.08822342 30.75651459 24.82520634 29.656897 22.5625 28.55664062 C19.06416362 26.85625303 15.56470407 25.15840544 12.06152344 23.46801758 C8.6336765 21.81299101 5.21096486 20.14774414 1.7890625 18.48046875 C0.20649155 17.72107246 0.20649155 17.72107246 -1.40805054 16.94633484 C-2.37731476 16.47186417 -3.34657898 15.99739349 -4.34521484 15.50854492 C-5.19852386 15.09521408 -6.05183289 14.68188324 -6.93099976 14.25602722 C-9 13 -9 13 -11 10 C-11.45667063 6.4227467 -11.43777431 4.66541695 -9.4375 1.625 C-6.03266807 -0.64488795 -4.06964539 -0.36605411 0 0 Z " fill="#040301" transform="translate(59,306)"/>
<path d="M0 0 C1.99037236 0.8758101 3.94183111 1.80762785 5.89175415 2.77011108 C6.60483231 3.11434616 7.31791046 3.45858124 8.05259705 3.81324768 C9.54986157 4.53902662 11.0448091 5.26960319 12.5375061 6.00473022 C14.81522828 7.12444566 17.10168273 8.22455849 19.38980103 9.32284546 C20.84934612 10.0332832 22.30834992 10.74483428 23.76675415 11.45761108 C24.44598434 11.78380936 25.12521454 12.11000763 25.82502747 12.4460907 C29.53260773 14.28771844 32.50747976 16.07828287 35.1300354 19.31307983 C35.6925354 22.25057983 35.6925354 22.25057983 35.1300354 25.31307983 C33.0675354 28.25057983 33.0675354 28.25057983 30.1300354 30.31307983 C23.4699624 30.20955538 18.24514491 27.15706021 12.4425354 24.12557983 C10.48432734 23.12012747 8.52599494 22.11491726 6.5675354 21.10995483 C5.63167603 20.62591187 4.69581665 20.1418689 3.7315979 19.64315796 C1.54480313 18.52513451 -0.65064839 17.44258258 -2.8699646 16.39120483 C-3.9218396 15.89104858 -4.9737146 15.39089233 -6.0574646 14.87557983 C-6.93789429 14.4643689 -7.81832397 14.05315796 -8.72543335 13.62948608 C-11.17570548 12.12540282 -12.43080319 10.79633874 -13.8699646 8.31307983 C-13.80435532 4.57335083 -13.63341893 2.25271594 -11.2449646 -0.68692017 C-7.43480033 -2.29119986 -3.83086535 -1.40724518 0 0 Z " fill="#060401" transform="translate(61.869964599609375,342.6869201660156)"/>
</svg>