<svg xmlns="http://www.w3.org/2000/svg" version="1.1" viewBox="-0.66 93.48 513.3 325">
<path d="M0 0 C1.11086839 -0.00445784 2.22173679 -0.00891569 3.36626786 -0.01350862 C4.59687985 -0.01332426 5.82749183 -0.01313989 7.09539509 -0.01294994 C9.04452973 -0.01846498 9.04452973 -0.01846498 11.03304082 -0.02409142 C14.65211141 -0.0341284 18.27116541 -0.03783094 21.89024794 -0.04048073 C25.78882246 -0.04437881 29.68738378 -0.05395753 33.5859499 -0.0626936 C43.00754984 -0.08247292 52.42915087 -0.09252644 61.85076639 -0.10142139 C66.28543208 -0.10580221 70.72009657 -0.11116958 75.15476131 -0.11641026 C89.89330485 -0.13342461 104.63184763 -0.14791906 119.37039948 -0.155159 C123.19672554 -0.15706896 127.02305159 -0.15898928 130.84937763 -0.16094494 C131.80041657 -0.16142868 132.7514555 -0.16191242 133.7313138 -0.16241082 C149.13946067 -0.17071209 164.54752993 -0.19604972 179.9556429 -0.22852562 C195.76800511 -0.26158231 211.58032786 -0.27960653 227.39272481 -0.28280324 C236.27354448 -0.28496971 245.15425101 -0.29373832 254.03503704 -0.31926441 C261.59812786 -0.34095252 269.16107806 -0.34903121 276.72419646 -0.33929763 C280.58332029 -0.3347473 284.44215388 -0.33668136 288.30123806 -0.35605907 C292.48527021 -0.37688702 296.66865634 -0.36672356 300.85271931 -0.35352612 C302.07217768 -0.36449536 303.29163606 -0.37546461 304.54804772 -0.38676625 C311.1805206 -0.33612814 315.44664733 0.07438648 320.7915163 4.13422108 C324.6762864 9.04129909 325.9285887 12.75092787 325.88917255 18.89984608 C325.8859499 19.7892992 325.88272724 20.67875233 325.87940693 21.59515858 C325.87102802 22.5155492 325.86264912 23.43593983 325.8540163 24.38422108 C325.84950459 25.32008045 325.84499287 26.25593983 325.84034443 27.22015858 C325.82858549 29.52491149 325.81215056 31.82953334 325.7915163 34.13422108 C326.60869129 34.12533863 327.42586628 34.11645618 328.26780415 34.10730457 C336.00534785 34.0268346 343.74268588 33.96609329 351.48054028 33.92697239 C355.45775438 33.90618307 359.43461993 33.87802626 363.41163349 33.83246326 C367.25663984 33.78869314 371.10131297 33.76501904 374.94654942 33.7547121 C376.4064492 33.74737614 377.86633274 33.73305202 379.32608891 33.71130085 C392.35939951 33.52499161 402.21635225 35.88138928 411.7915163 45.13422108 C419.23205107 53.89215726 420.1147227 64.70966955 420.28761005 75.75140858 C419.71001719 79.68995522 418.61093011 81.37256063 415.7915163 84.13422108 C415.1315163 84.13422108 414.4715163 84.13422108 413.7915163 84.13422108 C415.32592975 91.46701174 416.94803118 98.77638332 418.63160419 106.07635975 C419.19350399 108.55982409 419.73542599 111.04789875 420.25660419 113.54022694 C422.28658915 126.51255874 422.28658915 126.51255874 428.31019306 137.71298695 C431.8931364 140.03870083 435.6483465 140.53446051 439.7915163 141.13422108 C450.51724752 146.59258379 456.62212049 155.0388041 460.7915163 166.13422108 C461.60386909 168.93431817 461.922915 171.43456556 461.94541645 174.34674549 C461.95401691 175.17946476 461.96261738 176.01218403 461.97147846 176.87013721 C461.97786839 178.22772396 461.97786839 178.22772396 461.9843874 179.6127367 C461.99256489 180.57249912 462.00074238 181.53226154 462.00916767 182.52110767 C462.03396394 185.69422249 462.05051856 188.86729291 462.0649538 192.04047108 C462.07293932 193.66581524 462.07293932 193.66581524 462.08108616 195.32399464 C462.10778632 201.05386109 462.12717554 206.78370595 462.14161396 212.51361561 C462.15498172 217.26088068 462.18289121 222.00771882 462.22364521 226.75482655 C462.27283626 232.48476241 462.2977176 238.21430949 462.30484104 243.94444752 C462.31157036 246.12939671 462.32683571 248.31433666 462.35073185 250.49916553 C462.38222804 253.5518105 462.38244398 256.60294177 462.3750124 259.65570545 C462.3996204 261.0132922 462.3996204 261.0132922 462.42472553 262.39830494 C462.36371453 268.50579446 462.36371453 268.50579446 459.45690632 271.69824696 C456.08169695 273.51663499 453.78358749 273.59223114 449.95948505 273.52484608 C448.02105732 273.50551014 448.02105732 273.50551014 446.04346943 273.48578358 C444.68864085 273.45236742 443.33382314 273.4185077 441.9790163 273.38422108 C440.60469314 273.36414142 439.23034191 273.34589321 437.85596943 273.32953358 C434.50043774 273.2824384 431.14633503 273.21667243 427.7915163 273.13422108 C427.80964375 273.70994862 427.82777119 274.28567616 427.84644794 274.87884998 C428.09745498 288.72583247 422.36611683 300.43381384 412.9790163 310.44672108 C401.87424277 320.86943559 389.12184629 324.7623284 374.15968037 324.60687733 C359.82631052 324.10757024 347.7329857 318.05677109 337.89698505 307.68109608 C329.083275 297.01961379 325.7915163 286.81252274 325.7915163 273.13422108 C266.3915163 273.13422108 206.9915163 273.13422108 145.7915163 273.13422108 C145.7915163 275.77422108 145.7915163 278.41422108 145.7915163 281.13422108 C143.39779785 294.29223867 137.26797223 305.69237499 126.7915163 314.13422108 C113.30178105 323.40724794 100.90396882 325.59868202 84.7915163 324.13422108 C71.11705811 321.51476318 59.67830991 313.424696 51.72511005 302.22406483 C47.08061992 294.80226341 43.61294906 286.70533148 43.7290163 277.88422108 C43.73803974 276.99218983 43.74706318 276.10015858 43.75636005 275.18109608 C43.76796162 274.50562733 43.77956318 273.83015858 43.7915163 273.13422108 C43.20349232 273.14088291 42.61546833 273.14754475 42.00962543 273.15440845 C35.87757058 273.22088992 29.74561848 273.26607485 23.61329365 273.299016 C21.32614195 273.31408223 19.03901905 273.33453904 16.75196552 273.36053944 C13.46038923 273.39701714 10.16919568 273.41396941 6.8774538 273.42718983 C5.34899326 273.45041561 5.34899326 273.45041561 3.78965473 273.4741106 C-2.40111446 273.47557101 -7.11332223 273.02352857 -11.85301495 268.59906483 C-15.15016918 264.2874016 -16.33572727 262.29255231 -16.30613995 256.90765858 C-16.30291729 255.87640858 -16.29969463 254.84515858 -16.29637432 253.78265858 C-16.28380596 252.16230701 -16.28380596 252.16230701 -16.2709837 250.50922108 C-16.26647198 249.42125233 -16.26196026 248.33328358 -16.25731182 247.21234608 C-16.24550146 244.51958319 -16.22903148 241.82692919 -16.2084837 239.13422108 C-17.06079571 239.15516834 -17.91310772 239.17611561 -18.79124737 239.19769764 C-21.96877803 239.26607351 -25.1459324 239.31611845 -28.32396221 239.35394764 C-29.69648393 239.37400098 -31.06892087 239.40125136 -32.44114971 239.43597889 C-34.41920414 239.48476659 -36.39789488 239.50510984 -38.37645245 239.52484608 C-39.56520977 239.54579334 -40.75396709 239.56674061 -41.97874737 239.58832264 C-45.84564031 239.04463673 -47.47377532 237.86861371 -50.2084837 235.13422108 C-50.8725462 232.91547108 -50.8725462 232.91547108 -50.8334837 230.63422108 C-50.84637432 229.88140858 -50.85926495 229.12859608 -50.8725462 228.35297108 C-49.86882321 224.99935545 -48.11927132 224.01355411 -45.2084837 222.13422108 C-42.52617556 221.73925065 -40.25024557 221.56913537 -37.57249737 221.58832264 C-36.8207423 221.57798496 -36.06898724 221.56764729 -35.29445171 221.55699635 C-32.82156552 221.52761187 -30.34949935 221.52607016 -27.87645245 221.52484608 C-26.15722376 221.50986142 -24.43800945 221.49313366 -22.7188139 221.47473621 C-18.20283115 221.43108231 -13.68704258 221.41106802 -9.17088604 221.39600086 C-4.55895293 221.37642267 0.0527707 221.33445346 4.66456318 221.29437733 C13.70681624 221.21909652 22.74902236 221.16879219 31.7915163 221.13422108 C33.09611544 218.5250228 32.92417571 216.54479493 32.9165163 213.63422108 C32.91909443 212.65453358 32.92167255 211.67484608 32.9243288 210.66547108 C32.96091683 208.13991054 32.96091683 208.13991054 31.7915163 206.13422108 C31.06346287 206.12835484 30.33540943 206.12248859 29.58529377 206.11644459 C22.71421072 206.05847023 15.8434045 205.98636632 8.9726429 205.89850616 C5.44052964 205.85383444 1.90853087 205.8145717 -1.6237669 205.78778553 C-5.68745691 205.75673028 -9.75052911 205.70194273 -13.81395245 205.64593983 C-15.078699 205.6395499 -16.34344555 205.63315998 -17.64651775 205.62657642 C-19.41778782 205.59688519 -19.41778782 205.59688519 -21.22484112 205.56659412 C-22.78037952 205.54993954 -22.78037952 205.54993954 -24.36734295 205.53294849 C-27.64410418 205.07308583 -29.55008234 204.07528575 -32.2084837 202.13422108 C-33.77319602 199.00479642 -33.90550327 195.52339884 -33.2084837 192.13422108 C-31.86082745 189.89203358 -31.86082745 189.89203358 -29.2084837 188.13422108 C-25.61314447 187.642923 -22.07844538 187.75889617 -18.4584837 187.88422108 C-17.47492901 187.90226795 -16.49137432 187.92031483 -15.47801495 187.93890858 C-13.05442029 187.98596867 -10.63132744 188.05771022 -8.2084837 188.13422108 C-8.2084837 182.19422108 -8.2084837 176.25422108 -8.2084837 170.13422108 C-9.8584837 169.80422108 -11.5084837 169.47422108 -13.2084837 169.13422108 C-14.99675369 167.95952034 -14.99675369 167.95952034 -16.2084837 166.13422108 C-16.58880043 163.36114502 -16.58880043 163.36114502 -16.59616375 159.92943287 C-16.60606838 158.62978596 -16.61597301 157.33013905 -16.62617779 155.99110889 C-16.62193944 154.5475197 -16.61738155 153.10393141 -16.61253643 151.66034412 C-16.6182377 150.14255742 -16.62520101 148.62477501 -16.63333416 147.1069994 C-16.65131118 142.98081114 -16.6500883 138.85483503 -16.64439178 134.72861934 C-16.64130538 131.28435377 -16.64738649 127.84012928 -16.65343052 124.39586955 C-16.66749007 116.26866111 -16.6659036 108.14155773 -16.65452862 100.01434803 C-16.64305538 91.63175857 -16.65710633 83.24948934 -16.68392509 74.86694211 C-16.7060874 67.67022151 -16.712718 60.47360139 -16.70684868 53.27684909 C-16.70347801 48.97857935 -16.70590094 44.68051471 -16.72309971 40.38227367 C-16.73857449 36.33808862 -16.73460769 32.29437714 -16.71579456 28.25021076 C-16.71210961 26.7675641 -16.71521449 25.28488233 -16.72568035 23.80226803 C-16.73889667 21.77486816 -16.72493071 19.74734587 -16.70968914 17.71996021 C-16.70947986 16.58636413 -16.70927057 15.45276804 -16.70905495 14.28482056 C-15.90701931 9.2368018 -13.35196526 6.14157388 -9.5834837 2.82172108 C-6.06982063 0.325171 -4.27447013 0.00792665 0 0 Z " fill="#B3E56D" transform="translate(50.20848369598389,93.86577892303467)"/>
<path d="M0 0 C1.11086839 -0.00445784 2.22173679 -0.00891569 3.36626786 -0.01350862 C4.59687985 -0.01332426 5.82749183 -0.01313989 7.09539509 -0.01294994 C9.04452973 -0.01846498 9.04452973 -0.01846498 11.03304082 -0.02409142 C14.65211141 -0.0341284 18.27116541 -0.03783094 21.89024794 -0.04048073 C25.78882246 -0.04437881 29.68738378 -0.05395753 33.5859499 -0.0626936 C43.00754984 -0.08247292 52.42915087 -0.09252644 61.85076639 -0.10142139 C66.28543208 -0.10580221 70.72009657 -0.11116958 75.15476131 -0.11641026 C89.89330485 -0.13342461 104.63184763 -0.14791906 119.37039948 -0.155159 C123.19672554 -0.15706896 127.02305159 -0.15898928 130.84937763 -0.16094494 C131.80041657 -0.16142868 132.7514555 -0.16191242 133.7313138 -0.16241082 C149.13946067 -0.17071209 164.54752993 -0.19604972 179.9556429 -0.22852562 C195.76800511 -0.26158231 211.58032786 -0.27960653 227.39272481 -0.28280324 C236.27354448 -0.28496971 245.15425101 -0.29373832 254.03503704 -0.31926441 C261.59812786 -0.34095252 269.16107806 -0.34903121 276.72419646 -0.33929763 C280.58332029 -0.3347473 284.44215388 -0.33668136 288.30123806 -0.35605907 C292.48527021 -0.37688702 296.66865634 -0.36672356 300.85271931 -0.35352612 C302.07217768 -0.36449536 303.29163606 -0.37546461 304.54804772 -0.38676625 C311.1805206 -0.33612814 315.44664733 0.07438648 320.7915163 4.13422108 C324.6762864 9.04129909 325.9285887 12.75092787 325.88917255 18.89984608 C325.8859499 19.7892992 325.88272724 20.67875233 325.87940693 21.59515858 C325.87102802 22.5155492 325.86264912 23.43593983 325.8540163 24.38422108 C325.84950459 25.32008045 325.84499287 26.25593983 325.84034443 27.22015858 C325.82858549 29.52491149 325.81215056 31.82953334 325.7915163 34.13422108 C326.60869129 34.12533863 327.42586628 34.11645618 328.26780415 34.10730457 C336.00534785 34.0268346 343.74268588 33.96609329 351.48054028 33.92697239 C355.45775438 33.90618307 359.43461993 33.87802626 363.41163349 33.83246326 C367.25663984 33.78869314 371.10131297 33.76501904 374.94654942 33.7547121 C376.4064492 33.74737614 377.86633274 33.73305202 379.32608891 33.71130085 C392.35939951 33.52499161 402.21635225 35.88138928 411.7915163 45.13422108 C419.23205107 53.89215726 420.1147227 64.70966955 420.28761005 75.75140858 C419.71001719 79.68995522 418.61093011 81.37256063 415.7915163 84.13422108 C415.1315163 84.13422108 414.4715163 84.13422108 413.7915163 84.13422108 C415.32592975 91.46701174 416.94803118 98.77638332 418.63160419 106.07635975 C419.19350399 108.55982409 419.73542599 111.04789875 420.25660419 113.54022694 C422.28658915 126.51255874 422.28658915 126.51255874 428.31019306 137.71298695 C431.8931364 140.03870083 435.6483465 140.53446051 439.7915163 141.13422108 C450.51724752 146.59258379 456.62212049 155.0388041 460.7915163 166.13422108 C461.60386909 168.93431817 461.922915 171.43456556 461.94541645 174.34674549 C461.95401691 175.17946476 461.96261738 176.01218403 461.97147846 176.87013721 C461.97786839 178.22772396 461.97786839 178.22772396 461.9843874 179.6127367 C461.99256489 180.57249912 462.00074238 181.53226154 462.00916767 182.52110767 C462.03396394 185.69422249 462.05051856 188.86729291 462.0649538 192.04047108 C462.07293932 193.66581524 462.07293932 193.66581524 462.08108616 195.32399464 C462.10778632 201.05386109 462.12717554 206.78370595 462.14161396 212.51361561 C462.15498172 217.26088068 462.18289121 222.00771882 462.22364521 226.75482655 C462.27283626 232.48476241 462.2977176 238.21430949 462.30484104 243.94444752 C462.31157036 246.12939671 462.32683571 248.31433666 462.35073185 250.49916553 C462.38222804 253.5518105 462.38244398 256.60294177 462.3750124 259.65570545 C462.3996204 261.0132922 462.3996204 261.0132922 462.42472553 262.39830494 C462.36371453 268.50579446 462.36371453 268.50579446 459.45690632 271.69824696 C456.08169695 273.51663499 453.78358749 273.59223114 449.95948505 273.52484608 C448.02105732 273.50551014 448.02105732 273.50551014 446.04346943 273.48578358 C444.68864085 273.45236742 443.33382314 273.4185077 441.9790163 273.38422108 C440.60469314 273.36414142 439.23034191 273.34589321 437.85596943 273.32953358 C434.50043774 273.2824384 431.14633503 273.21667243 427.7915163 273.13422108 C427.80964375 273.70994862 427.82777119 274.28567616 427.84644794 274.87884998 C428.09745498 288.72583247 422.36611683 300.43381384 412.9790163 310.44672108 C401.87424277 320.86943559 389.12184629 324.7623284 374.15968037 324.60687733 C359.82631052 324.10757024 347.7329857 318.05677109 337.89698505 307.68109608 C329.083275 297.01961379 325.7915163 286.81252274 325.7915163 273.13422108 C266.3915163 273.13422108 206.9915163 273.13422108 145.7915163 273.13422108 C145.7915163 275.77422108 145.7915163 278.41422108 145.7915163 281.13422108 C143.39779785 294.29223867 137.26797223 305.69237499 126.7915163 314.13422108 C113.30178105 323.40724794 100.90396882 325.59868202 84.7915163 324.13422108 C71.11705811 321.51476318 59.67830991 313.424696 51.72511005 302.22406483 C47.08061992 294.80226341 43.61294906 286.70533148 43.7290163 277.88422108 C43.73803974 276.99218983 43.74706318 276.10015858 43.75636005 275.18109608 C43.76796162 274.50562733 43.77956318 273.83015858 43.7915163 273.13422108 C43.20349232 273.14088291 42.61546833 273.14754475 42.00962543 273.15440845 C35.87757058 273.22088992 29.74561848 273.26607485 23.61329365 273.299016 C21.32614195 273.31408223 19.03901905 273.33453904 16.75196552 273.36053944 C13.46038923 273.39701714 10.16919568 273.41396941 6.8774538 273.42718983 C5.34899326 273.45041561 5.34899326 273.45041561 3.78965473 273.4741106 C-2.40111446 273.47557101 -7.11332223 273.02352857 -11.85301495 268.59906483 C-15.15016918 264.2874016 -16.33572727 262.29255231 -16.30613995 256.90765858 C-16.30291729 255.87640858 -16.29969463 254.84515858 -16.29637432 253.78265858 C-16.28380596 252.16230701 -16.28380596 252.16230701 -16.2709837 250.50922108 C-16.26647198 249.42125233 -16.26196026 248.33328358 -16.25731182 247.21234608 C-16.24550146 244.51958319 -16.22903148 241.82692919 -16.2084837 239.13422108 C-17.06079571 239.15516834 -17.91310772 239.17611561 -18.79124737 239.19769764 C-21.96877803 239.26607351 -25.1459324 239.31611845 -28.32396221 239.35394764 C-29.69648393 239.37400098 -31.06892087 239.40125136 -32.44114971 239.43597889 C-34.41920414 239.48476659 -36.39789488 239.50510984 -38.37645245 239.52484608 C-39.56520977 239.54579334 -40.75396709 239.56674061 -41.97874737 239.58832264 C-45.84564031 239.04463673 -47.47377532 237.86861371 -50.2084837 235.13422108 C-50.8725462 232.91547108 -50.8725462 232.91547108 -50.8334837 230.63422108 C-50.84637432 229.88140858 -50.85926495 229.12859608 -50.8725462 228.35297108 C-49.86513405 224.98702931 -48.13966392 224.01140581 -45.2084837 222.13422108 C-42.40889166 221.74203983 -40.00388072 221.57610264 -37.20872784 221.60077381 C-36.41784267 221.59215824 -35.62695751 221.58354267 -34.81210613 221.57466602 C-32.20561492 221.55201956 -29.6002001 221.55874241 -26.99363995 221.56781483 C-25.1766964 221.5625784 -23.35975557 221.55630185 -21.54281902 221.54903126 C-17.73731464 221.53862933 -13.93218422 221.54318511 -10.12669659 221.55780506 C-5.25623645 221.57498715 -0.38695668 221.55150407 4.48337173 221.51631546 C8.23500059 221.4943261 11.98634771 221.49578672 15.7380209 221.50408077 C17.53332596 221.50489956 19.32865186 221.49805003 21.1238966 221.48330975 C23.63745157 221.46583597 26.14889485 221.48042793 28.66236591 221.50311756 C29.76836643 221.48557926 29.76836643 221.48557926 30.8967104 221.46768665 C34.7541854 221.53832855 37.26823898 222.13191687 40.2605257 224.48616505 C42.7915163 227.13422108 42.7915163 227.13422108 43.4165163 230.13422108 C42.6208101 233.95361084 41.65734083 235.46813752 38.7915163 238.13422108 C35.8122355 238.82796289 32.91450568 238.71689688 29.8696413 238.62250233 C28.57966236 238.61189022 28.57966236 238.61189022 27.26362324 238.60106373 C24.5220288 238.57311719 21.7824913 238.51038088 19.0415163 238.44672108 C17.18086876 238.42163842 15.32018913 238.39882519 13.45948505 238.3783617 C8.90206938 238.32754306 4.34908925 238.22970096 -0.2084837 238.13422108 C-0.2084837 244.40422108 -0.2084837 250.67422108 -0.2084837 257.13422108 C15.3015163 257.13422108 30.8115163 257.13422108 46.7915163 257.13422108 C47.7815163 254.16422108 48.7715163 251.19422108 49.7915163 248.13422108 C57.15603877 235.47583763 69.17748899 227.67223018 82.7915163 223.13422108 C86.18322601 222.90413702 89.58030773 222.94905056 92.9790163 222.94672108 C93.90005146 222.93447498 94.82108662 222.92222889 95.77003193 222.9096117 C109.7011774 222.87994993 121.41570572 228.00482646 131.52979755 237.63031483 C136.54448311 243.1819788 140.02383339 249.2150138 142.7915163 256.13422108 C224.9615163 256.62922108 224.9615163 256.62922108 308.7915163 257.13422108 C308.7915163 236.01422108 308.7915163 214.89422108 308.7915163 193.13422108 C313.7915163 188.13422108 313.7915163 188.13422108 316.7915163 187.50922108 C320.83916377 188.35248096 322.19135779 189.96305743 324.7915163 193.13422108 C325.39278889 196.16518116 325.39278889 196.16518116 325.35914326 199.57684803 C325.3587656 200.8577985 325.35838795 202.13874897 325.35799885 203.45851612 C325.3324694 204.84652152 325.30638948 206.23451688 325.27979755 207.62250233 C325.27046512 209.05023934 325.26335104 210.47799244 325.25835896 211.90575123 C325.23932231 215.65279275 325.19025263 219.39885601 325.13483906 223.14551258 C325.08357316 226.97299435 325.0608294 230.80063512 325.03565693 234.6283617 C324.98212863 242.13075949 324.89685882 249.6323529 324.7915163 257.13422108 C326.1115163 257.13422108 327.4315163 257.13422108 328.7915163 257.13422108 C329.1008913 255.95859608 329.1008913 255.95859608 329.4165163 254.75922108 C334.60002148 241.09361653 344.02957428 232.25934572 356.97462177 225.93256092 C369.05752404 220.6233577 381.49892704 221.01589168 393.7915163 225.13422108 C408.29180205 230.87545097 418.53206557 240.87658328 424.7915163 255.13422108 C424.7915163 255.79422108 424.7915163 256.45422108 424.7915163 257.13422108 C431.7215163 257.13422108 438.6515163 257.13422108 445.7915163 257.13422108 C445.7915163 245.25422108 445.7915163 233.37422108 445.7915163 221.13422108 C440.5115163 221.13422108 435.2315163 221.13422108 429.7915163 221.13422108 C422.03696512 218.58477959 417.2466026 213.43052648 413.22437763 206.39178944 C410.82209563 200.93027151 411.27902703 195.45729017 411.2915163 189.57172108 C411.26315693 188.35291248 411.23479755 187.13410389 411.2055788 185.8783617 C411.19479407 180.96322125 411.23507001 177.24190105 413.45948505 172.81390858 C418.97094822 170.03556255 424.53892296 170.61777329 430.6040163 170.82172108 C432.50183857 170.85555897 432.50183857 170.85555897 434.43800068 170.89008045 C437.55704249 170.9489303 440.67367533 171.03110738 443.7915163 171.13422108 C441.01355059 164.87961789 441.01355059 164.87961789 436.5415163 159.82172108 C436.02073505 159.37183826 435.4999538 158.92195545 434.9633913 158.45843983 C428.32570079 154.41135874 422.2956315 153.68982655 414.70362568 153.70184803 C413.72710041 153.69165638 412.75057514 153.68146473 411.7444582 153.67096424 C408.54133495 153.64095483 405.33851137 153.63158663 402.1352663 153.62250233 C399.90466547 153.60564673 397.67407408 153.58749531 395.44349384 153.56810474 C389.5910255 153.52069448 383.73859548 153.49082696 377.88599873 153.46466541 C371.90651097 153.43481468 365.9271551 153.38829982 359.9477663 153.34320545 C348.22908542 153.25727435 336.51037732 153.18988366 324.7915163 153.13422108 C324.82849628 154.37703846 324.82849628 154.37703846 324.86622334 155.64496326 C324.89498554 157.27159901 324.89498554 157.27159901 324.9243288 158.93109608 C324.96130878 160.54516346 324.96130878 160.54516346 324.99903584 162.19183826 C324.7915163 165.13422108 324.7915163 165.13422108 322.6665163 168.38422108 C319.27847465 170.4465073 317.68332006 170.87946009 313.7915163 170.13422108 C311.48876074 168.26712197 310.1132776 166.77774367 308.7915163 164.13422108 C308.7915163 115.29422108 308.7915163 66.45422108 308.7915163 16.13422108 C206.8215163 16.13422108 104.8515163 16.13422108 -0.2084837 16.13422108 C-0.2084837 65.30422108 -0.2084837 114.47422108 -0.2084837 165.13422108 C-5.2084837 170.13422108 -5.2084837 170.13422108 -8.7709837 170.69672108 C-12.80903155 170.03594961 -13.7500386 169.32774534 -16.2084837 166.13422108 C-16.71184826 163.23809719 -16.71184826 163.23809719 -16.71641827 159.80917835 C-16.72769756 158.50815678 -16.73897686 157.2071352 -16.75059795 155.86668873 C-16.74282081 154.42672984 -16.73462814 152.98677314 -16.72606182 151.54681873 C-16.73148259 150.02888282 -16.738605 148.51095218 -16.74730206 146.9930315 C-16.76554705 142.87096509 -16.75846238 138.74929887 -16.74578571 134.6272254 C-16.73566037 130.31251952 -16.74505044 125.99784797 -16.75133038 121.68314075 C-16.75860971 114.43500079 -16.74901325 107.1870238 -16.72996807 99.93890858 C-16.70821512 91.56367047 -16.71523795 83.18882211 -16.73727369 74.81359351 C-16.75543918 67.62108804 -16.75797992 60.42869976 -16.74751902 53.23617876 C-16.74128827 48.94129037 -16.74043654 44.64658499 -16.75366497 40.35170841 C-16.76523905 36.31159307 -16.75716969 32.27197873 -16.73408794 28.23191738 C-16.7288084 26.75088997 -16.73030176 25.26982024 -16.7391386 23.78880978 C-16.7501061 21.76363242 -16.73389951 19.7383627 -16.71641827 17.71323109 C-16.71491016 16.58093382 -16.71340206 15.44863655 -16.71184826 14.28202724 C-15.90513338 9.2372103 -13.35047976 6.14026523 -9.5834837 2.82172108 C-6.06982063 0.325171 -4.27447013 0.00792665 0 0 Z " fill="#000000" transform="translate(50.20848369598389,93.86577892303467)"/>
<path d="M0 0 C12.86561132 -0.09286361 25.73114231 -0.16384818 38.5970211 -0.20724869 C44.57180025 -0.22808348 50.54634933 -0.25632635 56.52099609 -0.30175781 C62.29169589 -0.34536162 68.062175 -0.36916799 73.83302689 -0.37950897 C76.02975562 -0.38687424 78.22647289 -0.40125673 80.42310715 -0.42292023 C83.51068554 -0.45214699 86.59736315 -0.45594791 89.68505859 -0.45410156 C91.03374023 -0.47567322 91.03374023 -0.47567322 92.40966797 -0.49768066 C99.95512047 -0.44916371 106.75990052 1.37124005 112.69140625 6.18359375 C113.61759766 7.29927734 113.61759766 7.29927734 114.5625 8.4375 C115.20316406 9.17871094 115.84382813 9.91992188 116.50390625 10.68359375 C118.12037085 13.18637054 118.49870351 15.09549116 119 18 C118.20303711 18.0093457 117.40607422 18.01869141 116.58496094 18.02832031 C112.97267825 18.08201498 109.36169179 18.16566608 105.75 18.25 C103.86861328 18.27126953 103.86861328 18.27126953 101.94921875 18.29296875 C100.74394531 18.32519531 99.53867187 18.35742188 98.296875 18.390625 C97.18666992 18.41157227 96.07646484 18.43251953 94.93261719 18.45410156 C91.30093527 19.13012893 90.11568357 19.99022383 88 23 C87.16746048 27.3539721 87.39755388 31.76288006 87.4375 36.1875 C87.41365234 37.38181641 87.38980469 38.57613281 87.36523438 39.80664062 C87.37936284 48.36377818 88.75776012 54.6184644 94.81420898 60.8737793 C102.75653732 68.24099334 109.422642 67.27641513 121 68 C121 79.88 121 91.76 121 104 C114.07 104 107.14 104 100 104 C99.030625 102.06125 98.06125 100.1225 97.0625 98.125 C90.31933622 85.38150909 80.84228429 76.95145188 67.125 72.125 C53.9891549 68.29469096 40.58429194 69.38510579 28.3125 75.625 C18.77399912 81.27023522 12.04664717 88.15653968 7 98 C6.66097656 98.64839844 6.32195312 99.29679687 5.97265625 99.96484375 C5.29182717 101.29826477 4.64092116 102.64694423 4 104 C2.68 104 1.36 104 0 104 C-0.00364563 103.20708557 -0.00729126 102.41417114 -0.01104736 101.597229 C-0.04892408 94.12239856 -0.10577224 86.64806671 -0.18390274 79.17355728 C-0.22340179 75.33085682 -0.25557802 71.48838633 -0.27099609 67.64550781 C-0.28614722 63.93641985 -0.3205638 60.22796401 -0.36830902 56.51915741 C-0.38313904 55.10464728 -0.39104195 53.69004691 -0.39188385 52.27545929 C-0.39424998 50.29323296 -0.42359306 48.31109451 -0.45410156 46.32910156 C-0.46298401 45.20103088 -0.47186646 44.07296021 -0.48101807 42.91070557 C-1.11606362 39.34905823 -2.17169753 38.18938717 -5 36 C-5.99 35.67 -6.98 35.34 -8 35 C-8 29.06 -8 23.12 -8 17 C-6.02 16.01 -4.04 15.02 -2 14 C-0.64908472 11.29816945 -0.66141942 8.88191794 -0.4375 5.875 C-0.35371094 4.77929688 -0.26992188 3.68359375 -0.18359375 2.5546875 C-0.12300781 1.71164063 -0.06242187 0.86859375 0 0 Z " fill="#FEC74F" transform="translate(375,247)"/>
<path d="M0 0 C3.6056377 2.99616481 7.04169552 6.11267213 10.18652344 9.59130859 C10.18652344 10.25130859 10.18652344 10.91130859 10.18652344 11.59130859 C12.82652344 11.59130859 15.46652344 11.59130859 18.18652344 11.59130859 C18.43402344 10.82818359 18.68152344 10.06505859 18.93652344 9.27880859 C20.35258713 6.23427166 21.34410128 5.31006506 24.18652344 3.59130859 C26.59850883 3.20819855 26.59850883 3.20819855 29.33468628 3.19689941 C30.89496048 3.17987473 30.89496048 3.17987473 32.48675537 3.1625061 C33.62243958 3.16543671 34.75812378 3.16836731 35.92822266 3.17138672 C37.12861176 3.16291718 38.32900085 3.15444763 39.56576538 3.14572144 C42.85518305 3.12633086 46.14425266 3.12057445 49.43371725 3.12246895 C52.18214803 3.1225887 54.93052582 3.11402261 57.67894185 3.10569143 C64.16506624 3.08645892 70.65106194 3.08357268 77.13720703 3.09033203 C83.82205461 3.09697049 90.50635008 3.07411669 97.1910857 3.0370183 C102.93561855 3.00629792 108.67997404 2.99496383 114.42458737 2.99885511 C117.85326397 3.00092054 121.28151109 2.99547658 124.71010971 2.97096252 C128.53586429 2.94884557 132.36028541 2.9584405 136.18603516 2.97607422 C137.3176709 2.96281097 138.44930664 2.94954773 139.61523438 2.93588257 C148.18085589 3.02768625 148.18085589 3.02768625 151.93655396 5.94226074 C154.18652344 8.59130859 154.18652344 8.59130859 154.18652344 11.59130859 C160.12652344 11.59130859 166.06652344 11.59130859 172.18652344 11.59130859 C172.18652344 20.50130859 172.18652344 29.41130859 172.18652344 38.59130859 C117.40652344 38.59130859 62.62652344 38.59130859 6.18652344 38.59130859 C3.87652344 34.30130859 1.56652344 30.01130859 -0.81347656 25.59130859 C-8.77625406 15.23969785 -19.62538622 7.33171642 -32.81347656 5.59130859 C-44.55003605 4.76648822 -55.40695057 4.42207322 -65.81347656 10.59130859 C-66.62945312 11.06052734 -67.44542969 11.52974609 -68.28613281 12.01318359 C-78.80324336 18.54467796 -85.23582639 27.14718316 -89.81347656 38.59130859 C-105.32347656 38.59130859 -120.83347656 38.59130859 -136.81347656 38.59130859 C-136.81347656 32.32130859 -136.81347656 26.05130859 -136.81347656 19.59130859 C-132.64271484 19.55263672 -132.64271484 19.55263672 -128.38769531 19.51318359 C-125.69691815 19.47477883 -123.00633364 19.42961366 -120.31567383 19.38378906 C-118.44467352 19.35555122 -116.5735533 19.33435069 -114.70239258 19.3203125 C-112.01353436 19.29892142 -109.32612218 19.25229314 -106.63769531 19.20068359 C-105.80010178 19.19945496 -104.96250824 19.19822632 -104.09953308 19.19696045 C-99.51995666 19.13634205 -99.51995666 19.13634205 -95.80493164 16.72509766 C-94.70950983 14.54329884 -94.70950983 14.54329884 -94.12597656 11.84130859 C-90.20897756 2.14207298 -79.12906531 -4.1581806 -69.97167969 -8.22705078 C-47.18708018 -17.52737524 -19.75606385 -15.34632316 0 0 Z " fill="#9BD152" transform="translate(186.8134765625,312.40869140625)"/>
<path d="M0 0 C23.43 0 46.86 0 71 0 C74.37609263 9.00291369 74.37609263 9.00291369 75.25854492 12.50073242 C75.45852585 13.28481979 75.65850677 14.06890717 75.86454773 14.87675476 C76.06780167 15.69473038 76.2710556 16.51270599 76.48046875 17.35546875 C76.69818436 18.2201326 76.91589996 19.08479645 77.14021301 19.97566223 C77.5954169 21.78942076 78.04824124 23.60377802 78.4987793 25.41870117 C79.18861239 28.19197206 79.88975118 30.96222061 80.59179688 33.73242188 C81.03453741 35.5024334 81.47661782 37.27261021 81.91796875 39.04296875 C82.12729538 39.86701706 82.33662201 40.69106537 82.55229187 41.54008484 C82.83807854 42.70203117 82.83807854 42.70203117 83.12963867 43.88745117 C83.29823898 44.56281418 83.46683929 45.23817719 83.64054871 45.93400574 C84 48 84 48 84 53 C56.28 53 28.56 53 0 53 C0 35.51 0 18.02 0 0 Z " fill="#B3E5FE" transform="translate(375,178)"/>
<path d="M0 0 C8.59006111 5.32363934 15.8261919 13.06542931 18.66796875 22.91015625 C20.68878856 33.31737828 18.72256253 42.75602927 12.94921875 51.57421875 C6.65543803 59.93970229 -0.64233841 64.0669882 -10.86328125 66.32421875 C-21.21337629 67.60815459 -29.21047508 65.16878328 -37.61328125 59.13671875 C-45.71407174 52.40991393 -49.84418648 44.02404589 -51.21484375 33.66796875 C-51.72736227 24.28078743 -48.41165309 15.95785643 -42.36328125 8.82421875 C-31.20203928 -2.76814415 -15.14409808 -7.32778939 0 0 Z " fill="#595B6C" transform="translate(442.86328125,335.67578125)"/>
<path d="M0 0 C7.63347974 5.3221 12.68723236 11.759018 15.515625 20.75390625 C17.31237039 32.31269224 15.36878815 42.29311667 8.828125 52.00390625 C2.08102939 60.35343707 -6.7869946 63.75998339 -17.20703125 65.10546875 C-26.79675901 65.62979919 -35.05797783 62.08697226 -42.421875 56.06640625 C-46.77806332 51.89961743 -49.2347379 47.29216948 -51.484375 41.75390625 C-51.84917969 40.96757812 -52.21398437 40.18125 -52.58984375 39.37109375 C-55.26351607 31.548559 -54.21572633 22.37797104 -50.734375 14.9921875 C-45.95706163 6.43781075 -39.61415394 -0.08690448 -30.1796875 -3.41015625 C-19.70801799 -5.77901172 -9.40271779 -5.53629968 0 0 Z " fill="#595B6C" transform="translate(163.484375,337.24609375)"/>
<path d="M0 0 C3.21142855 2.37366458 4.71584605 3.93442268 5.75 7.8125 C3.99746675 15.2607663 -4.15702076 21.30283415 -9.46411133 26.59350586 C-10.17393158 27.30507843 -10.88375183 28.016651 -11.61508179 28.74978638 C-13.93490904 31.07397424 -16.25832599 33.39453359 -18.58203125 35.71484375 C-20.20405948 37.33754623 -21.82593928 38.96039708 -23.44767761 40.58338928 C-26.83255566 43.96973606 -30.21922215 47.35428114 -33.60717773 50.73754883 C-37.95637071 55.08101757 -42.30102215 59.42899714 -46.64436817 63.77831173 C-49.98559927 67.12314742 -53.32919729 70.46560882 -56.67352867 73.80734444 C-58.27749791 75.41064554 -59.88072174 77.01469272 -61.48319435 78.61948967 C-63.71401174 80.85283484 -65.94798888 83.08296955 -68.18286133 85.31225586 C-68.84727737 85.97869614 -69.51169342 86.64513641 -70.19624329 87.33177185 C-71.10654297 88.2378418 -71.10654297 88.2378418 -72.03523254 89.16221619 C-72.56262433 89.68923095 -73.09001612 90.21624571 -73.63338947 90.75923061 C-75.59466616 92.53990772 -77.00814267 93.00155098 -79.625 93.5 C-87.62638169 92.31461012 -94.48395934 82.67614295 -100.0234375 77.14453125 C-101.26451767 75.90844368 -101.26451767 75.90844368 -102.53067017 74.64738464 C-104.26475395 72.91833138 -105.99751437 71.18794998 -107.72900391 69.45629883 C-110.38293695 66.80456964 -113.04478895 64.16096186 -115.70703125 61.51757812 C-117.39632203 59.83121857 -119.08514099 58.14438622 -120.7734375 56.45703125 C-121.56922211 55.66843216 -122.36500671 54.87983307 -123.18490601 54.06733704 C-123.91972198 53.32944443 -124.65453796 52.59155182 -125.41162109 51.83129883 C-126.38136368 50.86369377 -126.38136368 50.86369377 -127.37069702 49.87654114 C-129.94847153 46.90760291 -131.02004515 44.96216697 -130.9375 41 C-129.72940536 37.13409716 -128.54971764 35.92919437 -125 34 C-119.88254657 33.82083925 -117.55667358 35.0461326 -113.80883789 38.51000977 C-112.26463278 40.05516026 -110.73671647 41.61670593 -109.22265625 43.19140625 C-108.41130722 44.01124496 -107.59995819 44.83108368 -106.76402283 45.67576599 C-104.182399 48.29090669 -101.62244584 50.92615221 -99.0625 53.5625 C-97.31323885 55.34186223 -95.56260272 57.11987388 -93.81054688 58.89648438 C-89.5243016 63.24879186 -85.25565037 67.61778362 -81 72 C-78.18348125 70.71695827 -76.13611359 69.38375476 -73.95762634 67.19140625 C-73.38430069 66.61938477 -72.81097504 66.04736328 -72.22027588 65.45800781 C-71.6035199 64.83249023 -70.98676392 64.20697266 -70.35131836 63.5625 C-69.36280632 62.5720166 -69.36280632 62.5720166 -68.35432434 61.56152344 C-66.17819797 59.37890872 -64.00913086 57.18941048 -61.83984375 55 C-60.32868002 53.48256561 -58.81699981 51.9656454 -57.30482483 50.44921875 C-53.32495457 46.45604359 -49.35068749 42.4573418 -45.37799072 38.45703125 C-39.0166407 32.05256692 -32.64857559 25.65479689 -26.2772541 19.26025391 C-24.050762 17.02352591 -21.8277075 14.78342236 -19.60496521 12.54296875 C-18.24318792 11.17436432 -16.88130116 9.8058688 -15.51928711 8.4375 C-14.59111679 7.49922363 -14.59111679 7.49922363 -13.64419556 6.54199219 C-13.07368973 5.9699707 -12.5031839 5.39794922 -11.91539001 4.80859375 C-11.42189528 4.31157959 -10.92840055 3.81456543 -10.41995144 3.30249023 C-6.9198447 0.09191928 -4.65406022 -0.65156843 0 0 Z " fill="#030502" transform="translate(276,171)"/>
<path d="M0 0 C0.33 0 0.66 0 1 0 C1.33 10.23 1.66 20.46 2 31 C5.3 28.03 8.6 25.06 12 22 C15.67807496 19.8096857 19.17030382 17.84163331 23 16 C23.7734375 15.60941406 24.546875 15.21882813 25.34375 14.81640625 C40.39129685 7.58404659 59.42151173 7.93412328 75.06933594 13.26806641 C81.03306238 15.52897332 86.75557348 18.36189833 92 22 C93.31025146 22.85573608 93.31025146 22.85573608 94.64697266 23.72875977 C98.89785632 26.91485387 101.60283295 29.23755603 102.79736328 34.53833008 C102.98361601 38.59503637 102.87841393 42.51600553 102.625 46.5625 C102.57474224 47.96663702 102.52913181 49.37094845 102.48828125 50.77539062 C102.37109656 54.185465 102.19174645 57.59330471 102 61 C107.94 61 113.88 61 120 61 C120 49.78 120 38.56 120 27 C116.37 27 112.74 27 109 27 C109 26.67 109 26.34 109 26 C112.96 26 116.92 26 121 26 C121 37.88 121 49.76 121 62 C114.07 62 107.14 62 100 62 C99.030625 60.06125 98.06125 58.1225 97.0625 56.125 C90.31933622 43.38150909 80.84228429 34.95145188 67.125 30.125 C53.9891549 26.29469096 40.58429194 27.38510579 28.3125 33.625 C18.77399912 39.27023522 12.04664717 46.15653968 7 56 C6.66097656 56.64839844 6.32195312 57.29679687 5.97265625 57.96484375 C5.29182717 59.29826477 4.64092116 60.64694423 4 62 C2.68 62 1.36 62 0 62 C0 41.54 0 21.08 0 0 Z " fill="#DEA345" transform="translate(375,289)"/>
<path d="M0 0 C1.20053513 -0.00861557 2.40107025 -0.01723114 3.63798523 -0.02610779 C6.92331532 -0.04490102 10.20800885 -0.04566895 13.49336314 -0.03678632 C16.2393693 -0.03166892 18.98528541 -0.0389751 21.73128229 -0.04625839 C28.21123472 -0.06324872 34.69095161 -0.05970077 41.17089844 -0.04296875 C47.84840278 -0.02604918 54.52525332 -0.04188085 61.20268625 -0.07419163 C66.94300981 -0.10091212 72.68313016 -0.10815696 78.42350966 -0.09967655 C81.84879636 -0.09475422 85.2736898 -0.09692443 88.69892693 -0.11746407 C92.51982219 -0.13487153 96.33931747 -0.12039562 100.16015625 -0.09765625 C101.29022095 -0.10934845 102.42028564 -0.12104065 103.58459473 -0.13308716 C112.13701418 -0.0294637 112.13701418 -0.0294637 115.85475159 2.88539124 C118.14477539 5.53344727 118.14477539 5.53344727 118.76977539 8.53344727 C117.94505877 12.49208706 117.23913381 13.85640364 114.14477539 16.53344727 C110.11076203 17.31295223 106.10158904 17.21567734 102.00415039 17.18041992 C100.14022644 17.19356232 100.14022644 17.19356232 98.23864746 17.20697021 C94.83323113 17.22520921 91.42933336 17.22093237 88.02400208 17.20507479 C84.45974696 17.19241119 80.8955565 17.20415715 77.33129883 17.21200562 C71.34582881 17.22110093 65.36066731 17.20911771 59.37524414 17.18530273 C52.45629528 17.15809124 45.53808308 17.16690552 38.61915207 17.19443476 C32.67759269 17.21712854 26.73625501 17.22032475 20.79466629 17.20724142 C17.24649226 17.1994482 13.69866444 17.19840121 10.1505127 17.21492386 C6.19518422 17.2320562 2.24068012 17.20830832 -1.71459961 17.18041992 C-2.89082886 17.19054108 -4.06705811 17.20066223 -5.27893066 17.21109009 C-13.17264347 17.10772672 -13.17264347 17.10772672 -16.61010742 14.21566772 C-18.34269308 10.48334698 -18.06222599 8.43845172 -16.85522461 4.53344727 C-12.31974816 -0.88665806 -6.5137561 -0.03754827 0 0 Z " fill="#040602" transform="translate(222.855224609375,315.466552734375)"/>
<path d="M0 0 C12.86561132 -0.09286361 25.73114231 -0.16384818 38.5970211 -0.20724869 C44.57180025 -0.22808348 50.54634933 -0.25632635 56.52099609 -0.30175781 C62.29169589 -0.34536162 68.062175 -0.36916799 73.83302689 -0.37950897 C76.02975562 -0.38687424 78.22647289 -0.40125673 80.42310715 -0.42292023 C83.51068554 -0.45214699 86.59736315 -0.45594791 89.68505859 -0.45410156 C91.03374023 -0.47567322 91.03374023 -0.47567322 92.40966797 -0.49768066 C99.95512047 -0.44916371 106.75990052 1.37124005 112.69140625 6.18359375 C113.61759766 7.29927734 113.61759766 7.29927734 114.5625 8.4375 C115.20316406 9.17871094 115.84382813 9.91992188 116.50390625 10.68359375 C118.12037085 13.18637054 118.49870351 15.09549116 119 18 C94.13910959 19.30053454 69.31568694 18.93836395 44.43389893 18.60510254 C38.95534121 18.53320735 33.47669194 18.46912704 27.99804688 18.40429688 C17.3319306 18.27697646 6.66593954 18.14130683 -4 18 C-2.5 15 -2.5 15 -1 12 C-0.77141886 9.9625237 -0.58975722 7.91959697 -0.4375 5.875 C-0.35371094 4.77929688 -0.26992188 3.68359375 -0.18359375 2.5546875 C-0.12300781 1.71164063 -0.06242187 0.86859375 0 0 Z " fill="#FEDA63" transform="translate(375,247)"/>
<path d="M0 0 C23.43 0 46.86 0 71 0 C74.375 9 74.375 9 75.1875 13.5 C75.34605469 14.3559375 75.50460937 15.211875 75.66796875 16.09375 C75.83232422 17.03734375 75.83232422 17.03734375 76 18 C75.0140107 18.0154612 75.0140107 18.0154612 74.00810242 18.03123474 C67.17888335 18.13924871 60.34979759 18.25385097 53.52075195 18.37231445 C50.97065006 18.41567967 48.42051884 18.45735356 45.87036133 18.49731445 C42.20905711 18.55497839 38.54790078 18.61868425 34.88671875 18.68359375 C33.17097908 18.70866249 33.17097908 18.70866249 31.420578 18.73423767 C29.82926811 18.7641555 29.82926811 18.7641555 28.20581055 18.79467773 C26.80349434 18.81799416 26.80349434 18.81799416 25.37284851 18.84178162 C22.85013487 18.90972708 22.85013487 18.90972708 20 20 C16.62032217 30.13903348 18.36831487 41.31886868 18 52 C39.78 52 61.56 52 84 52 C84 52.33 84 52.66 84 53 C56.28 53 28.56 53 0 53 C0 35.51 0 18.02 0 0 Z " fill="#96CFF7" transform="translate(375,178)"/>
<path d="M0 0 C1.05569183 -0.00700928 2.11138367 -0.01401855 3.19906616 -0.02124023 C6.69230374 -0.03885972 10.18473254 -0.02718199 13.67797852 -0.01367188 C16.10409196 -0.01636584 18.53020435 -0.02024745 20.95631409 -0.02526855 C26.0430834 -0.03116916 31.1295719 -0.02258292 36.21630859 -0.00390625 C42.73792372 0.018871 49.25887997 0.00577083 55.78047085 -0.01819611 C60.79133571 -0.03264897 65.80204433 -0.02805012 70.81291389 -0.01768494 C73.21749003 -0.01501563 75.62208034 -0.01829453 78.02663994 -0.02760315 C81.38793381 -0.03775846 84.74816063 -0.02227984 88.109375 0 C89.10434494 -0.00809692 90.09931488 -0.01619385 91.12443542 -0.02453613 C95.41817124 0.02820668 97.94819485 0.12235181 101.70594788 2.33508301 C104.40942294 5.41870764 104.76228818 7.44483072 104.61938477 11.51757812 C102.64654962 14.24558095 101.04838454 16.17063919 97.67596436 16.9894104 C95.26763766 17.19608336 92.90384192 17.23562235 90.48657227 17.22460938 C89.56536591 17.23991196 88.64415955 17.25521454 87.69503784 17.27098083 C84.62789341 17.31519819 81.5618239 17.32334792 78.49438477 17.33007812 C76.34234988 17.35088225 74.19033076 17.37337709 72.03833008 17.39746094 C67.39896822 17.44347428 62.75992374 17.47140505 58.12036133 17.48681641 C52.95020688 17.50432065 47.78050795 17.53952914 42.6105957 17.59130859 C35.8505708 17.65888755 29.09065141 17.70863693 22.3303833 17.74472046 C19.69343492 17.75993745 17.05650652 17.77915226 14.4196167 17.80239868 C10.71004006 17.83202489 7.00094126 17.84163525 3.29125977 17.84570312 C2.18193085 17.85798447 1.07260193 17.87026581 -0.07034302 17.88291931 C-1.0947348 17.87998367 -2.11912659 17.87704803 -3.17456055 17.87402344 C-4.5084079 17.87949188 -4.5084079 17.87949188 -5.86920166 17.8850708 C-8.96342811 17.43229569 -10.8528905 16.32849466 -13.38061523 14.51757812 C-14.94532756 11.38815347 -15.07763481 7.90675589 -14.38061523 4.51757812 C-10.82837989 -0.88892274 -5.84244876 -0.04744848 0 0 Z " fill="#020201" transform="translate(31.380615234375,281.482421875)"/>
<path d="M0 0 C8.33679531 -0.11327168 16.67298552 -0.20486993 25.01034546 -0.25906086 C28.88235216 -0.2850789 32.753802 -0.32033152 36.62548828 -0.37719727 C40.36676451 -0.43179941 44.10750747 -0.46147907 47.84915161 -0.47438622 C49.27166125 -0.48357599 50.69414395 -0.50152147 52.11642456 -0.52865028 C62.29336359 -0.71492535 67.99066173 0.37599544 75.4375 7.25 C77 10 77 10 78 19 C52.26 19 26.52 19 0 19 C0 12.73 0 6.46 0 0 Z " fill="#F2D15F" transform="translate(375,144)"/>
<path d="M0 0 C4.31742818 2.2145429 6.89007122 4.93784419 8.875 9.3046875 C9.73257855 15.15744011 9.69007653 20.79674116 6.265625 25.80078125 C2.57544586 29.79156488 -1.675065 32.54607478 -7.1875 32.8671875 C-12.93776022 32.04572175 -16.37131213 30.1531693 -20.4375 25.8671875 C-23.6497328 20.98935251 -24.82390714 17.19547623 -24.125 11.3046875 C-19.61169174 0.9608823 -11.03042893 -3.60922123 0 0 Z " fill="#010101" transform="translate(152.125,351.6953125)"/>
<path d="M0 0 C4.32555035 2.23284348 6.90846765 4.91231129 8.87109375 9.30859375 C9.61768782 14.91189772 9.64585095 19.63988594 7.24609375 24.80859375 C2.99528955 29.28312449 -1.14801897 31.95790113 -7.31640625 32.68359375 C-13.51818296 32.07358293 -17.34975235 29.13222649 -21.62890625 24.74609375 C-23.88012002 19.58706218 -23.98985039 14.84535517 -23.12890625 9.30859375 C-21.492248 5.48525276 -19.03547906 3.13517485 -16.00390625 0.37109375 C-10.86667911 -1.52744671 -5.2397316 -1.701711 0 0 Z " fill="#010101" transform="translate(434.12890625,351.69140625)"/>
<path d="M0 0 C5.94 0.66 11.88 1.32 18 2 C18 13.22 18 24.44 18 36 C12.06 36 6.12 36 0 36 C0 24.12 0 12.24 0 0 Z " fill="#FEDB63" transform="translate(477,314)"/>
<path d="M0 0 C5.94 0 11.88 0 18 0 C18 5.94 18 11.88 18 18 C6.17256637 18.59734513 6.17256637 18.59734513 1.6875 16.3125 C-1.04851618 10.94180157 -0.30134028 5.96653758 0 0 Z " fill="#EDF0F7" transform="translate(478,281)"/>
<path d="M0 0 C4.36547263 3.4923781 6.56626906 6.04241358 9.125 10.75 C9.47046875 11.37108643 9.8159375 11.99217285 10.171875 12.63208008 C16 23.29148713 16 23.29148713 16 29 C10.72 29 5.44 29 0 29 C0 19.43 0 9.86 0 0 Z " fill="#FEC750" transform="translate(477,321)"/>
</svg>